<mxfile host="Electron" modified="2023-04-20T17:02:28.224Z" agent="Mozilla/5.0 (Windows NT 10.0; Win64; x64) AppleWebKit/537.36 (KHTML, like Gecko) draw.io/21.1.2 Chrome/106.0.5249.199 Electron/21.4.3 Safari/537.36" etag="FeUze3GgYoDoBD7RnAnw" version="21.1.2" type="device" pages="3">
  <diagram id="S4oTpSVKxKc-6Zjsm03D" name="NanoControleur">
    <mxGraphModel dx="5622" dy="3534" grid="1" gridSize="10" guides="1" tooltips="1" connect="1" arrows="1" fold="1" page="1" pageScale="1" pageWidth="827" pageHeight="1169" math="0" shadow="0">
      <root>
        <mxCell id="0" />
        <mxCell id="1" parent="0" />
        <mxCell id="teL8xZC8soCZEZ2RLAmQ-1" value="" style="rounded=0;whiteSpace=wrap;html=1;" parent="1" vertex="1">
          <mxGeometry x="-3160" y="-2262" width="3840" height="43" as="geometry" />
        </mxCell>
        <mxCell id="Z6q24NlugE62Qm38r9RU-89" value="PC_o(8)" style="edgeStyle=orthogonalEdgeStyle;rounded=0;orthogonalLoop=1;jettySize=auto;html=1;exitX=1;exitY=0.5;exitDx=0;exitDy=0;entryX=0;entryY=0.5;entryDx=0;entryDy=0;strokeWidth=3;" parent="1" source="jxcrHoV1CTlF3j9Qc1w7-53" target="Z6q24NlugE62Qm38r9RU-2" edge="1">
          <mxGeometry relative="1" as="geometry">
            <mxPoint x="-1510" y="-1910" as="targetPoint" />
            <Array as="points">
              <mxPoint x="-1670" y="-2037" />
              <mxPoint x="-1670" y="-1982" />
              <mxPoint x="-2020" y="-1982" />
              <mxPoint x="-2020" y="-1917" />
            </Array>
          </mxGeometry>
        </mxCell>
        <mxCell id="Z6q24NlugE62Qm38r9RU-87" value="addr_o(8)" style="edgeStyle=orthogonalEdgeStyle;rounded=0;orthogonalLoop=1;jettySize=auto;html=1;exitX=1;exitY=0.5;exitDx=0;exitDy=0;entryX=0;entryY=0.5;entryDx=0;entryDy=0;strokeWidth=3;" parent="1" source="jxcrHoV1CTlF3j9Qc1w7-54" target="Z6q24NlugE62Qm38r9RU-31" edge="1">
          <mxGeometry x="0.8824" relative="1" as="geometry">
            <mxPoint x="-1500" y="-1850" as="targetPoint" />
            <Array as="points">
              <mxPoint x="-1460" y="-2067" />
              <mxPoint x="-1460" y="-1537" />
            </Array>
            <mxPoint as="offset" />
          </mxGeometry>
        </mxCell>
        <mxCell id="Z6q24NlugE62Qm38r9RU-85" value="nanoProcesseur_inst_data_o(8)" style="edgeStyle=orthogonalEdgeStyle;rounded=0;orthogonalLoop=1;jettySize=auto;html=1;exitX=1;exitY=0.5;exitDx=0;exitDy=0;entryX=0;entryY=0.5;entryDx=0;entryDy=0;strokeWidth=3;" parent="1" source="jxcrHoV1CTlF3j9Qc1w7-55" target="Z6q24NlugE62Qm38r9RU-41" edge="1">
          <mxGeometry x="0.7651" relative="1" as="geometry">
            <mxPoint x="-1450" y="-1860" as="targetPoint" />
            <Array as="points">
              <mxPoint x="-1490" y="-2127" />
              <mxPoint x="-1490" y="-1502" />
              <mxPoint x="-1380" y="-1502" />
              <mxPoint x="-1380" y="-1507" />
            </Array>
            <mxPoint as="offset" />
          </mxGeometry>
        </mxCell>
        <mxCell id="Z6q24NlugE62Qm38r9RU-91" value="wr_np(1)" style="edgeStyle=orthogonalEdgeStyle;rounded=0;orthogonalLoop=1;jettySize=auto;html=1;exitX=1;exitY=0.5;exitDx=0;exitDy=0;entryX=0;entryY=0.5;entryDx=0;entryDy=0;" parent="1" source="jxcrHoV1CTlF3j9Qc1w7-56" target="Z6q24NlugE62Qm38r9RU-30" edge="1">
          <mxGeometry x="0.8824" relative="1" as="geometry">
            <mxPoint x="-1490" y="-1900" as="targetPoint" />
            <Array as="points">
              <mxPoint x="-1430" y="-2097" />
              <mxPoint x="-1430" y="-1567" />
            </Array>
            <mxPoint as="offset" />
          </mxGeometry>
        </mxCell>
        <mxCell id="xloW_JymkiZXVr3U_K_P-1" value="nanoControleur" style="text;html=1;strokeColor=none;fillColor=none;align=left;verticalAlign=middle;whiteSpace=wrap;rounded=0;fontSize=25;" parent="1" vertex="1">
          <mxGeometry x="-3050" y="-2259" width="630" height="40" as="geometry" />
        </mxCell>
        <mxCell id="Z6q24NlugE62Qm38r9RU-77" value="clk_i(1)" style="edgeStyle=orthogonalEdgeStyle;rounded=0;orthogonalLoop=1;jettySize=auto;html=1;exitX=1;exitY=0.5;exitDx=0;exitDy=0;entryX=0;entryY=0.5;entryDx=0;entryDy=0;" parent="1" source="teL8xZC8soCZEZ2RLAmQ-6" target="jxcrHoV1CTlF3j9Qc1w7-46" edge="1">
          <mxGeometry relative="1" as="geometry">
            <Array as="points">
              <mxPoint x="-2000" y="-2127" />
            </Array>
          </mxGeometry>
        </mxCell>
        <mxCell id="teL8xZC8soCZEZ2RLAmQ-6" value="clk_i(1)" style="text;html=1;strokeColor=none;fillColor=none;align=left;verticalAlign=middle;whiteSpace=wrap;rounded=0;fontSize=10;" parent="1" vertex="1">
          <mxGeometry x="-3160" y="-2142" width="60" height="30" as="geometry" />
        </mxCell>
        <mxCell id="Z6q24NlugE62Qm38r9RU-78" style="edgeStyle=orthogonalEdgeStyle;rounded=0;orthogonalLoop=1;jettySize=auto;html=1;exitX=1;exitY=0.5;exitDx=0;exitDy=0;entryX=0;entryY=0.5;entryDx=0;entryDy=0;" parent="1" source="teL8xZC8soCZEZ2RLAmQ-7" target="jxcrHoV1CTlF3j9Qc1w7-48" edge="1">
          <mxGeometry relative="1" as="geometry" />
        </mxCell>
        <mxCell id="Z6q24NlugE62Qm38r9RU-83" value="reset_i(1)" style="edgeLabel;html=1;align=center;verticalAlign=middle;resizable=0;points=[];" parent="Z6q24NlugE62Qm38r9RU-78" vertex="1" connectable="0">
          <mxGeometry x="-0.422" y="-1" relative="1" as="geometry">
            <mxPoint as="offset" />
          </mxGeometry>
        </mxCell>
        <mxCell id="teL8xZC8soCZEZ2RLAmQ-7" value="reset_i(1)" style="text;html=1;strokeColor=none;fillColor=none;align=left;verticalAlign=middle;whiteSpace=wrap;rounded=0;fontSize=10;" parent="1" vertex="1">
          <mxGeometry x="-3160" y="-2092" width="60" height="30" as="geometry" />
        </mxCell>
        <mxCell id="Z6q24NlugE62Qm38r9RU-81" value="port_a_i(8)" style="edgeStyle=orthogonalEdgeStyle;rounded=0;orthogonalLoop=1;jettySize=auto;html=1;exitX=1;exitY=0.5;exitDx=0;exitDy=0;entryX=0;entryY=0.5;entryDx=0;entryDy=0;strokeWidth=3;" parent="1" source="teL8xZC8soCZEZ2RLAmQ-9" target="Z6q24NlugE62Qm38r9RU-15" edge="1">
          <mxGeometry relative="1" as="geometry">
            <Array as="points">
              <mxPoint x="-2570" y="-2030" />
              <mxPoint x="-2570" y="-1402" />
              <mxPoint x="-810" y="-1402" />
              <mxPoint x="-810" y="-1507" />
            </Array>
          </mxGeometry>
        </mxCell>
        <mxCell id="teL8xZC8soCZEZ2RLAmQ-9" value="port_a_i(8)" style="text;html=1;strokeColor=none;fillColor=none;align=left;verticalAlign=middle;whiteSpace=wrap;rounded=0;fontSize=10;" parent="1" vertex="1">
          <mxGeometry x="-3160" y="-2045" width="60" height="30" as="geometry" />
        </mxCell>
        <mxCell id="Z6q24NlugE62Qm38r9RU-82" value="port_b_i(8)" style="edgeStyle=orthogonalEdgeStyle;rounded=0;orthogonalLoop=1;jettySize=auto;html=1;exitX=1;exitY=0.5;exitDx=0;exitDy=0;entryX=0;entryY=0.5;entryDx=0;entryDy=0;strokeWidth=3;" parent="1" source="teL8xZC8soCZEZ2RLAmQ-10" target="Z6q24NlugE62Qm38r9RU-16" edge="1">
          <mxGeometry relative="1" as="geometry">
            <Array as="points">
              <mxPoint x="-2630" y="-1977" />
              <mxPoint x="-2630" y="-1362" />
              <mxPoint x="-770" y="-1362" />
              <mxPoint x="-770" y="-1477" />
            </Array>
          </mxGeometry>
        </mxCell>
        <mxCell id="teL8xZC8soCZEZ2RLAmQ-10" value="port_b_i(8)" style="text;html=1;strokeColor=none;fillColor=none;align=left;verticalAlign=middle;whiteSpace=wrap;rounded=0;fontSize=10;" parent="1" vertex="1">
          <mxGeometry x="-3160" y="-1992" width="60" height="30" as="geometry" />
        </mxCell>
        <mxCell id="teL8xZC8soCZEZ2RLAmQ-11" value="port_a_o(8)" style="text;html=1;strokeColor=none;fillColor=none;align=right;verticalAlign=middle;whiteSpace=wrap;rounded=0;fontSize=10;" parent="1" vertex="1">
          <mxGeometry x="620" y="-2143" width="60" height="30" as="geometry" />
        </mxCell>
        <mxCell id="teL8xZC8soCZEZ2RLAmQ-12" value="port_b_o(8)" style="text;html=1;strokeColor=none;fillColor=none;align=right;verticalAlign=middle;whiteSpace=wrap;rounded=0;fontSize=10;" parent="1" vertex="1">
          <mxGeometry x="620" y="-2090" width="60" height="30" as="geometry" />
        </mxCell>
        <mxCell id="Z6q24NlugE62Qm38r9RU-12" value="ir_o()14" style="edgeStyle=orthogonalEdgeStyle;rounded=0;orthogonalLoop=1;jettySize=auto;html=1;exitX=1;exitY=0.5;exitDx=0;exitDy=0;entryX=0;entryY=0.5;entryDx=0;entryDy=0;strokeWidth=3;" parent="1" source="Z6q24NlugE62Qm38r9RU-9" target="jxcrHoV1CTlF3j9Qc1w7-50" edge="1">
          <mxGeometry x="-0.187" relative="1" as="geometry">
            <mxPoint x="-930" y="-1572" as="targetPoint" />
            <Array as="points">
              <mxPoint x="-1670" y="-1917" />
              <mxPoint x="-1670" y="-1872" />
              <mxPoint x="-2040" y="-1872" />
              <mxPoint x="-2040" y="-2037" />
            </Array>
            <mxPoint as="offset" />
          </mxGeometry>
        </mxCell>
        <mxCell id="Z6q24NlugE62Qm38r9RU-38" value="RAM_PORT_select_inst_data_o(8)" style="edgeStyle=orthogonalEdgeStyle;rounded=0;orthogonalLoop=1;jettySize=auto;html=1;exitX=1;exitY=0.5;exitDx=0;exitDy=0;entryX=0;entryY=0.5;entryDx=0;entryDy=0;strokeWidth=3;" parent="1" source="Z6q24NlugE62Qm38r9RU-17" target="jxcrHoV1CTlF3j9Qc1w7-52" edge="1">
          <mxGeometry relative="1" as="geometry">
            <mxPoint x="-35" y="-720.5" as="targetPoint" />
            <Array as="points">
              <mxPoint x="-240" y="-1627" />
              <mxPoint x="-240" y="-1262" />
              <mxPoint x="-2110" y="-1262" />
              <mxPoint x="-2110" y="-2068" />
            </Array>
          </mxGeometry>
        </mxCell>
        <mxCell id="Z6q24NlugE62Qm38r9RU-43" value="data_o(8)" style="edgeStyle=orthogonalEdgeStyle;rounded=0;orthogonalLoop=1;jettySize=auto;html=1;exitX=1;exitY=0.5;exitDx=0;exitDy=0;entryX=0;entryY=0.5;entryDx=0;entryDy=0;strokeWidth=3;" parent="1" source="Z6q24NlugE62Qm38r9RU-34" target="Z6q24NlugE62Qm38r9RU-14" edge="1">
          <mxGeometry x="0.4359" relative="1" as="geometry">
            <mxPoint x="-1015" y="-1097" as="targetPoint" />
            <Array as="points">
              <mxPoint x="-870" y="-1627" />
              <mxPoint x="-870" y="-1537" />
            </Array>
            <mxPoint as="offset" />
          </mxGeometry>
        </mxCell>
        <mxCell id="Z6q24NlugE62Qm38r9RU-51" value="port_a_o(8)" style="edgeStyle=orthogonalEdgeStyle;rounded=0;orthogonalLoop=1;jettySize=auto;html=1;exitX=1;exitY=0.5;exitDx=0;exitDy=0;entryX=0;entryY=0.5;entryDx=0;entryDy=0;strokeWidth=3;" parent="1" source="Z6q24NlugE62Qm38r9RU-52" target="teL8xZC8soCZEZ2RLAmQ-11" edge="1">
          <mxGeometry x="-0.5016" relative="1" as="geometry">
            <mxPoint x="145" y="-1917" as="targetPoint" />
            <mxPoint as="offset" />
          </mxGeometry>
        </mxCell>
        <mxCell id="Z6q24NlugE62Qm38r9RU-60" value="port_b_o(8)" style="edgeStyle=orthogonalEdgeStyle;rounded=0;orthogonalLoop=1;jettySize=auto;html=1;exitX=1;exitY=0.5;exitDx=0;exitDy=0;entryX=0;entryY=0.5;entryDx=0;entryDy=0;strokeWidth=3;" parent="1" source="ls6sEnhqKrcfrOKvgK-n-15" target="teL8xZC8soCZEZ2RLAmQ-12" edge="1">
          <mxGeometry x="-0.7747" y="2" relative="1" as="geometry">
            <mxPoint x="145" y="-1457" as="targetPoint" />
            <Array as="points">
              <mxPoint x="480" y="-1878" />
              <mxPoint x="480" y="-2075" />
            </Array>
            <mxPoint x="51" y="-1457" as="sourcePoint" />
            <mxPoint as="offset" />
          </mxGeometry>
        </mxCell>
        <mxCell id="Z6q24NlugE62Qm38r9RU-69" value="cs_port_a_i(1)" style="edgeStyle=orthogonalEdgeStyle;rounded=0;orthogonalLoop=1;jettySize=auto;html=1;exitX=1;exitY=0.5;exitDx=0;exitDy=0;entryX=0;entryY=0.5;entryDx=0;entryDy=0;" parent="1" source="Z6q24NlugE62Qm38r9RU-70" target="Z6q24NlugE62Qm38r9RU-49" edge="1">
          <mxGeometry x="0.7673" y="2" relative="1" as="geometry">
            <mxPoint x="-781" y="-1638" as="targetPoint" />
            <Array as="points">
              <mxPoint x="-180" y="-1835" />
              <mxPoint x="-180" y="-2038" />
            </Array>
            <mxPoint as="offset" />
          </mxGeometry>
        </mxCell>
        <mxCell id="Z6q24NlugE62Qm38r9RU-99" value="cs_port_a_i(1)" style="edgeStyle=orthogonalEdgeStyle;rounded=0;orthogonalLoop=1;jettySize=auto;html=1;exitX=1;exitY=0.5;exitDx=0;exitDy=0;entryX=0;entryY=0.5;entryDx=0;entryDy=0;" parent="1" source="Z6q24NlugE62Qm38r9RU-70" target="Z6q24NlugE62Qm38r9RU-25" edge="1">
          <mxGeometry x="0.5918" relative="1" as="geometry">
            <Array as="points">
              <mxPoint x="-750" y="-1835" />
              <mxPoint x="-750" y="-1655" />
            </Array>
            <mxPoint as="offset" />
          </mxGeometry>
        </mxCell>
        <mxCell id="Z6q24NlugE62Qm38r9RU-73" value="cs_port_b_i(1)" style="edgeStyle=orthogonalEdgeStyle;rounded=0;orthogonalLoop=1;jettySize=auto;html=1;exitX=1;exitY=0.5;exitDx=0;exitDy=0;entryX=0;entryY=0.5;entryDx=0;entryDy=0;" parent="1" source="Z6q24NlugE62Qm38r9RU-74" target="ls6sEnhqKrcfrOKvgK-n-13" edge="1">
          <mxGeometry x="0.7964" relative="1" as="geometry">
            <mxPoint x="-380" y="-1392" as="targetPoint" />
            <Array as="points">
              <mxPoint x="-180" y="-1805" />
              <mxPoint x="-180" y="-1788" />
            </Array>
            <mxPoint as="offset" />
          </mxGeometry>
        </mxCell>
        <mxCell id="Z6q24NlugE62Qm38r9RU-100" value="cs_port_b_i(1)" style="edgeStyle=orthogonalEdgeStyle;rounded=0;orthogonalLoop=1;jettySize=auto;html=1;exitX=1;exitY=0.5;exitDx=0;exitDy=0;entryX=0;entryY=0.5;entryDx=0;entryDy=0;" parent="1" source="Z6q24NlugE62Qm38r9RU-74" target="Z6q24NlugE62Qm38r9RU-26" edge="1">
          <mxGeometry x="0.5927" relative="1" as="geometry">
            <Array as="points">
              <mxPoint x="-780" y="-1805" />
              <mxPoint x="-780" y="-1625" />
            </Array>
            <mxPoint as="offset" />
          </mxGeometry>
        </mxCell>
        <mxCell id="Z6q24NlugE62Qm38r9RU-75" value="cs_ram_i(1)" style="edgeStyle=orthogonalEdgeStyle;rounded=0;orthogonalLoop=1;jettySize=auto;html=1;exitX=1;exitY=0.5;exitDx=0;exitDy=0;entryX=0;entryY=0.5;entryDx=0;entryDy=0;" parent="1" source="Z6q24NlugE62Qm38r9RU-76" target="Z6q24NlugE62Qm38r9RU-29" edge="1">
          <mxGeometry x="0.8492" relative="1" as="geometry">
            <mxPoint x="-771" y="-1537" as="targetPoint" />
            <Array as="points">
              <mxPoint x="-860" y="-1745" />
              <mxPoint x="-860" y="-1702" />
              <mxPoint x="-1290" y="-1702" />
              <mxPoint x="-1290" y="-1597" />
            </Array>
            <mxPoint as="offset" />
          </mxGeometry>
        </mxCell>
        <mxCell id="Z6q24NlugE62Qm38r9RU-98" value="cs_ram_i(1)" style="edgeStyle=orthogonalEdgeStyle;rounded=0;orthogonalLoop=1;jettySize=auto;html=1;exitX=1;exitY=0.5;exitDx=0;exitDy=0;entryX=0;entryY=0.5;entryDx=0;entryDy=0;" parent="1" source="Z6q24NlugE62Qm38r9RU-76" target="Z6q24NlugE62Qm38r9RU-21" edge="1">
          <mxGeometry x="0.552" relative="1" as="geometry">
            <Array as="points">
              <mxPoint x="-840" y="-1745" />
              <mxPoint x="-840" y="-1567" />
            </Array>
            <mxPoint as="offset" />
          </mxGeometry>
        </mxCell>
        <mxCell id="Z6q24NlugE62Qm38r9RU-92" value="nanoProcesseur_inst_data_o(8)" style="edgeStyle=orthogonalEdgeStyle;rounded=0;orthogonalLoop=1;jettySize=auto;html=1;exitX=1;exitY=0.5;exitDx=0;exitDy=0;entryX=0;entryY=0.5;entryDx=0;entryDy=0;strokeWidth=3;" parent="1" source="jxcrHoV1CTlF3j9Qc1w7-55" target="ls6sEnhqKrcfrOKvgK-n-17" edge="1">
          <mxGeometry x="0.9144" y="-9" relative="1" as="geometry">
            <mxPoint x="-1645" y="-1850" as="sourcePoint" />
            <mxPoint x="-390" y="-1342" as="targetPoint" />
            <Array as="points">
              <mxPoint x="-1080" y="-2127" />
              <mxPoint x="-1080" y="-1961" />
              <mxPoint x="-100" y="-1961" />
              <mxPoint x="-100" y="-1759" />
            </Array>
            <mxPoint as="offset" />
          </mxGeometry>
        </mxCell>
        <mxCell id="Z6q24NlugE62Qm38r9RU-93" value="nanoProcesseur_inst_data_o(8)" style="edgeStyle=orthogonalEdgeStyle;rounded=0;orthogonalLoop=1;jettySize=auto;html=1;exitX=1;exitY=0.5;exitDx=0;exitDy=0;entryX=0;entryY=0.5;entryDx=0;entryDy=0;strokeWidth=3;" parent="1" source="jxcrHoV1CTlF3j9Qc1w7-55" target="Z6q24NlugE62Qm38r9RU-54" edge="1">
          <mxGeometry x="0.9087" y="-8" relative="1" as="geometry">
            <mxPoint x="-1635" y="-1840" as="sourcePoint" />
            <mxPoint x="-1040" y="-1774" as="targetPoint" />
            <Array as="points">
              <mxPoint x="-1080" y="-2127" />
              <mxPoint x="-1080" y="-1961" />
              <mxPoint x="-100" y="-1961" />
              <mxPoint x="-100" y="-2008" />
            </Array>
            <mxPoint as="offset" />
          </mxGeometry>
        </mxCell>
        <mxCell id="Z6q24NlugE62Qm38r9RU-96" value="addr_o(8)" style="edgeStyle=orthogonalEdgeStyle;rounded=0;orthogonalLoop=1;jettySize=auto;html=1;exitX=1;exitY=0.5;exitDx=0;exitDy=0;entryX=0;entryY=0.5;entryDx=0;entryDy=0;strokeWidth=3;" parent="1" source="jxcrHoV1CTlF3j9Qc1w7-54" target="Z6q24NlugE62Qm38r9RU-65" edge="1">
          <mxGeometry x="0.6672" y="-1" relative="1" as="geometry">
            <mxPoint x="-1635" y="-1840" as="sourcePoint" />
            <mxPoint x="-1170" y="-1322" as="targetPoint" />
            <Array as="points">
              <mxPoint x="-1640" y="-2068" />
              <mxPoint x="-1640" y="-1818" />
            </Array>
            <mxPoint x="-1" as="offset" />
          </mxGeometry>
        </mxCell>
        <mxCell id="Z6q24NlugE62Qm38r9RU-101" value="wr_np(1)" style="edgeStyle=orthogonalEdgeStyle;rounded=0;orthogonalLoop=1;jettySize=auto;html=1;exitX=1;exitY=0.5;exitDx=0;exitDy=0;entryX=0;entryY=0.5;entryDx=0;entryDy=0;" parent="1" source="jxcrHoV1CTlF3j9Qc1w7-56" target="Z6q24NlugE62Qm38r9RU-50" edge="1">
          <mxGeometry x="0.8774" relative="1" as="geometry">
            <mxPoint x="-1644" y="-1932" as="sourcePoint" />
            <mxPoint x="-1489" y="-1932" as="targetPoint" />
            <Array as="points">
              <mxPoint x="-140" y="-2097" />
              <mxPoint x="-140" y="-2068" />
            </Array>
            <mxPoint as="offset" />
          </mxGeometry>
        </mxCell>
        <mxCell id="Z6q24NlugE62Qm38r9RU-102" value="wr_np(1)" style="edgeStyle=orthogonalEdgeStyle;rounded=0;orthogonalLoop=1;jettySize=auto;html=1;exitX=1;exitY=0.5;exitDx=0;exitDy=0;entryX=0;entryY=0.5;entryDx=0;entryDy=0;" parent="1" source="jxcrHoV1CTlF3j9Qc1w7-56" target="ls6sEnhqKrcfrOKvgK-n-14" edge="1">
          <mxGeometry x="0.8922" y="1" relative="1" as="geometry">
            <mxPoint x="-1625" y="-1880" as="sourcePoint" />
            <mxPoint x="-370" y="-1452" as="targetPoint" />
            <Array as="points">
              <mxPoint x="-140" y="-2097" />
              <mxPoint x="-140" y="-1819" />
            </Array>
            <mxPoint as="offset" />
          </mxGeometry>
        </mxCell>
        <mxCell id="ls6sEnhqKrcfrOKvgK-n-3" value="" style="group" parent="1" vertex="1" connectable="0">
          <mxGeometry x="-2000" y="-2169" width="300" height="160" as="geometry" />
        </mxCell>
        <mxCell id="xloW_JymkiZXVr3U_K_P-2" value="" style="rounded=0;whiteSpace=wrap;html=1;" parent="ls6sEnhqKrcfrOKvgK-n-3" vertex="1">
          <mxGeometry width="300" height="160" as="geometry" />
        </mxCell>
        <mxCell id="jxcrHoV1CTlF3j9Qc1w7-46" value="clk_i(1)" style="text;html=1;strokeColor=none;fillColor=none;align=left;verticalAlign=middle;whiteSpace=wrap;rounded=0;fontSize=10;" parent="ls6sEnhqKrcfrOKvgK-n-3" vertex="1">
          <mxGeometry y="26.5" width="100" height="30" as="geometry" />
        </mxCell>
        <mxCell id="jxcrHoV1CTlF3j9Qc1w7-48" value="reset_i(1)" style="text;html=1;strokeColor=none;fillColor=none;align=left;verticalAlign=middle;whiteSpace=wrap;rounded=0;fontSize=10;" parent="ls6sEnhqKrcfrOKvgK-n-3" vertex="1">
          <mxGeometry y="56.5" width="100" height="30" as="geometry" />
        </mxCell>
        <mxCell id="jxcrHoV1CTlF3j9Qc1w7-50" value="IR_i(14)" style="text;html=1;strokeColor=none;fillColor=none;align=left;verticalAlign=middle;whiteSpace=wrap;rounded=0;fontSize=10;" parent="ls6sEnhqKrcfrOKvgK-n-3" vertex="1">
          <mxGeometry y="116.5" width="100" height="30" as="geometry" />
        </mxCell>
        <mxCell id="jxcrHoV1CTlF3j9Qc1w7-52" value="data_i(8)" style="text;html=1;strokeColor=none;fillColor=none;align=left;verticalAlign=middle;whiteSpace=wrap;rounded=0;fontSize=10;" parent="ls6sEnhqKrcfrOKvgK-n-3" vertex="1">
          <mxGeometry y="86.5" width="100" height="30" as="geometry" />
        </mxCell>
        <mxCell id="jxcrHoV1CTlF3j9Qc1w7-53" value="PC_o(8)" style="text;html=1;strokeColor=none;fillColor=none;align=right;verticalAlign=middle;whiteSpace=wrap;rounded=0;fontSize=10;" parent="ls6sEnhqKrcfrOKvgK-n-3" vertex="1">
          <mxGeometry x="200" y="116.5" width="100" height="30" as="geometry" />
        </mxCell>
        <mxCell id="jxcrHoV1CTlF3j9Qc1w7-54" value="addr_o(8)" style="text;html=1;strokeColor=none;fillColor=none;align=right;verticalAlign=middle;whiteSpace=wrap;rounded=0;fontSize=10;" parent="ls6sEnhqKrcfrOKvgK-n-3" vertex="1">
          <mxGeometry x="200" y="86.5" width="100" height="30" as="geometry" />
        </mxCell>
        <mxCell id="jxcrHoV1CTlF3j9Qc1w7-55" value="data_o(8)" style="text;html=1;strokeColor=none;fillColor=none;align=right;verticalAlign=middle;whiteSpace=wrap;rounded=0;fontSize=10;" parent="ls6sEnhqKrcfrOKvgK-n-3" vertex="1">
          <mxGeometry x="200" y="26.5" width="100" height="30" as="geometry" />
        </mxCell>
        <mxCell id="jxcrHoV1CTlF3j9Qc1w7-56" value="data_wr_o(1)" style="text;html=1;strokeColor=none;fillColor=none;align=right;verticalAlign=middle;whiteSpace=wrap;rounded=0;fontSize=10;" parent="ls6sEnhqKrcfrOKvgK-n-3" vertex="1">
          <mxGeometry x="200" y="56.5" width="100" height="30" as="geometry" />
        </mxCell>
        <mxCell id="xloW_JymkiZXVr3U_K_P-3" value="nanoProcesseur" style="text;html=1;strokeColor=none;fillColor=none;align=center;verticalAlign=middle;whiteSpace=wrap;rounded=0;" parent="ls6sEnhqKrcfrOKvgK-n-3" vertex="1">
          <mxGeometry width="300" height="20" as="geometry" />
        </mxCell>
        <mxCell id="ls6sEnhqKrcfrOKvgK-n-7" value="" style="group" parent="1" vertex="1" connectable="0">
          <mxGeometry x="-1260" y="-1662" width="350" height="180" as="geometry" />
        </mxCell>
        <mxCell id="Z6q24NlugE62Qm38r9RU-27" value="" style="rounded=0;whiteSpace=wrap;html=1;" parent="ls6sEnhqKrcfrOKvgK-n-7" vertex="1">
          <mxGeometry x="50" width="300" height="180" as="geometry" />
        </mxCell>
        <mxCell id="Z6q24NlugE62Qm38r9RU-29" value="cs_i(1)" style="text;html=1;strokeColor=none;fillColor=none;align=left;verticalAlign=middle;whiteSpace=wrap;rounded=0;fontSize=10;" parent="ls6sEnhqKrcfrOKvgK-n-7" vertex="1">
          <mxGeometry x="50" y="50" width="100" height="30" as="geometry" />
        </mxCell>
        <mxCell id="Z6q24NlugE62Qm38r9RU-30" value="wr_i(1)" style="text;html=1;strokeColor=none;fillColor=none;align=left;verticalAlign=middle;whiteSpace=wrap;rounded=0;fontSize=10;" parent="ls6sEnhqKrcfrOKvgK-n-7" vertex="1">
          <mxGeometry x="50" y="80" width="100" height="30" as="geometry" />
        </mxCell>
        <mxCell id="Z6q24NlugE62Qm38r9RU-31" value="addr_i(8)" style="text;html=1;strokeColor=none;fillColor=none;align=left;verticalAlign=middle;whiteSpace=wrap;rounded=0;fontSize=10;" parent="ls6sEnhqKrcfrOKvgK-n-7" vertex="1">
          <mxGeometry x="50" y="110" width="100" height="30" as="geometry" />
        </mxCell>
        <mxCell id="Z6q24NlugE62Qm38r9RU-34" value="data_o(8)" style="text;html=1;strokeColor=none;fillColor=none;align=right;verticalAlign=middle;whiteSpace=wrap;rounded=0;fontSize=10;" parent="ls6sEnhqKrcfrOKvgK-n-7" vertex="1">
          <mxGeometry x="250" y="20" width="100" height="30" as="geometry" />
        </mxCell>
        <mxCell id="Z6q24NlugE62Qm38r9RU-36" value="RAM" style="text;html=1;strokeColor=none;fillColor=none;align=center;verticalAlign=middle;whiteSpace=wrap;rounded=0;" parent="ls6sEnhqKrcfrOKvgK-n-7" vertex="1">
          <mxGeometry x="50" width="300" height="20" as="geometry" />
        </mxCell>
        <mxCell id="Z6q24NlugE62Qm38r9RU-41" value="data_i(8)" style="text;html=1;strokeColor=none;fillColor=none;align=left;verticalAlign=middle;whiteSpace=wrap;rounded=0;fontSize=10;" parent="ls6sEnhqKrcfrOKvgK-n-7" vertex="1">
          <mxGeometry x="50" y="140" width="100" height="30" as="geometry" />
        </mxCell>
        <mxCell id="Z6q24NlugE62Qm38r9RU-28" value="clk_i(1)" style="text;html=1;strokeColor=none;fillColor=none;align=left;verticalAlign=middle;whiteSpace=wrap;rounded=0;fontSize=10;" parent="ls6sEnhqKrcfrOKvgK-n-7" vertex="1">
          <mxGeometry x="50" y="20" width="100" height="30" as="geometry" />
        </mxCell>
        <mxCell id="WDVHug6ynBAe9pPvSYg9-1" value="&lt;span style=&quot;color: rgb(0, 0, 0); font-family: Helvetica; font-size: 10px; font-style: normal; font-variant-ligatures: normal; font-variant-caps: normal; font-weight: 400; letter-spacing: normal; orphans: 2; text-align: center; text-indent: 0px; text-transform: none; widows: 2; word-spacing: 0px; -webkit-text-stroke-width: 0px; background-color: rgb(251, 251, 251); text-decoration-thickness: initial; text-decoration-style: initial; text-decoration-color: initial; float: none; display: inline !important;&quot;&gt;clk_i(1)&lt;/span&gt;" style="endArrow=classic;html=1;rounded=0;entryX=0;entryY=0.5;entryDx=0;entryDy=0;" parent="ls6sEnhqKrcfrOKvgK-n-7" target="Z6q24NlugE62Qm38r9RU-28" edge="1">
          <mxGeometry width="50" height="50" relative="1" as="geometry">
            <mxPoint y="35.5" as="sourcePoint" />
            <mxPoint x="110" y="-76.49999999999977" as="targetPoint" />
            <mxPoint as="offset" />
          </mxGeometry>
        </mxCell>
        <mxCell id="ls6sEnhqKrcfrOKvgK-n-8" value="" style="group" parent="1" vertex="1" connectable="0">
          <mxGeometry x="-19" y="-2163" width="400" height="180" as="geometry" />
        </mxCell>
        <mxCell id="Z6q24NlugE62Qm38r9RU-46" value="" style="rounded=0;whiteSpace=wrap;html=1;" parent="ls6sEnhqKrcfrOKvgK-n-8" vertex="1">
          <mxGeometry x="100" width="300" height="180" as="geometry" />
        </mxCell>
        <mxCell id="Z6q24NlugE62Qm38r9RU-47" value="clk_i(1)" style="text;html=1;strokeColor=none;fillColor=none;align=left;verticalAlign=middle;whiteSpace=wrap;rounded=0;fontSize=10;" parent="ls6sEnhqKrcfrOKvgK-n-8" vertex="1">
          <mxGeometry x="100" y="20" width="100" height="30" as="geometry" />
        </mxCell>
        <mxCell id="Z6q24NlugE62Qm38r9RU-48" value="reset_i(1)" style="text;html=1;strokeColor=none;fillColor=none;align=left;verticalAlign=middle;whiteSpace=wrap;rounded=0;fontSize=10;" parent="ls6sEnhqKrcfrOKvgK-n-8" vertex="1">
          <mxGeometry x="100" y="50" width="100" height="30" as="geometry" />
        </mxCell>
        <mxCell id="Z6q24NlugE62Qm38r9RU-49" value="cs_i(1)" style="text;html=1;strokeColor=none;fillColor=none;align=left;verticalAlign=middle;whiteSpace=wrap;rounded=0;fontSize=10;" parent="ls6sEnhqKrcfrOKvgK-n-8" vertex="1">
          <mxGeometry x="100" y="110" width="100" height="30" as="geometry" />
        </mxCell>
        <mxCell id="Z6q24NlugE62Qm38r9RU-50" value="load_i(1)" style="text;html=1;strokeColor=none;fillColor=none;align=left;verticalAlign=middle;whiteSpace=wrap;rounded=0;fontSize=10;" parent="ls6sEnhqKrcfrOKvgK-n-8" vertex="1">
          <mxGeometry x="100" y="80" width="100" height="30" as="geometry" />
        </mxCell>
        <mxCell id="Z6q24NlugE62Qm38r9RU-52" value="data_o(8)" style="text;html=1;strokeColor=none;fillColor=none;align=right;verticalAlign=middle;whiteSpace=wrap;rounded=0;fontSize=10;" parent="ls6sEnhqKrcfrOKvgK-n-8" vertex="1">
          <mxGeometry x="300" y="20" width="100" height="30" as="geometry" />
        </mxCell>
        <mxCell id="Z6q24NlugE62Qm38r9RU-53" value="OutPut_Register (port a)" style="text;html=1;strokeColor=none;fillColor=none;align=center;verticalAlign=middle;whiteSpace=wrap;rounded=0;" parent="ls6sEnhqKrcfrOKvgK-n-8" vertex="1">
          <mxGeometry x="100" width="300" height="20" as="geometry" />
        </mxCell>
        <mxCell id="Z6q24NlugE62Qm38r9RU-54" value="data_i(8)" style="text;html=1;strokeColor=none;fillColor=none;align=left;verticalAlign=middle;whiteSpace=wrap;rounded=0;fontSize=10;" parent="ls6sEnhqKrcfrOKvgK-n-8" vertex="1">
          <mxGeometry x="100" y="140" width="100" height="30" as="geometry" />
        </mxCell>
        <mxCell id="WDVHug6ynBAe9pPvSYg9-3" value="&lt;span style=&quot;color: rgb(0, 0, 0); font-family: Helvetica; font-size: 10px; font-style: normal; font-variant-ligatures: normal; font-variant-caps: normal; font-weight: 400; letter-spacing: normal; orphans: 2; text-align: center; text-indent: 0px; text-transform: none; widows: 2; word-spacing: 0px; -webkit-text-stroke-width: 0px; background-color: rgb(251, 251, 251); text-decoration-thickness: initial; text-decoration-style: initial; text-decoration-color: initial; float: none; display: inline !important;&quot;&gt;clk_i(1)&lt;/span&gt;" style="endArrow=classic;html=1;rounded=0;" parent="ls6sEnhqKrcfrOKvgK-n-8" edge="1">
          <mxGeometry width="50" height="50" relative="1" as="geometry">
            <mxPoint y="37" as="sourcePoint" />
            <mxPoint x="100" y="37" as="targetPoint" />
            <mxPoint as="offset" />
          </mxGeometry>
        </mxCell>
        <mxCell id="WDVHug6ynBAe9pPvSYg9-4" value="&lt;span style=&quot;color: rgb(0, 0, 0); font-family: Helvetica; font-size: 10px; font-style: normal; font-variant-ligatures: normal; font-variant-caps: normal; font-weight: 400; letter-spacing: normal; orphans: 2; text-align: center; text-indent: 0px; text-transform: none; widows: 2; word-spacing: 0px; -webkit-text-stroke-width: 0px; background-color: rgb(251, 251, 251); text-decoration-thickness: initial; text-decoration-style: initial; text-decoration-color: initial; float: none; display: inline !important;&quot;&gt;reset_i(1)&lt;/span&gt;" style="endArrow=classic;html=1;rounded=0;" parent="ls6sEnhqKrcfrOKvgK-n-8" edge="1">
          <mxGeometry width="50" height="50" relative="1" as="geometry">
            <mxPoint y="66" as="sourcePoint" />
            <mxPoint x="100" y="66" as="targetPoint" />
            <mxPoint as="offset" />
          </mxGeometry>
        </mxCell>
        <mxCell id="ls6sEnhqKrcfrOKvgK-n-9" value="" style="group" parent="1" vertex="1" connectable="0">
          <mxGeometry x="-19" y="-1913" width="400" height="180" as="geometry" />
        </mxCell>
        <mxCell id="ls6sEnhqKrcfrOKvgK-n-10" value="" style="rounded=0;whiteSpace=wrap;html=1;" parent="ls6sEnhqKrcfrOKvgK-n-9" vertex="1">
          <mxGeometry x="100" width="300" height="180" as="geometry" />
        </mxCell>
        <mxCell id="ls6sEnhqKrcfrOKvgK-n-11" value="clk_i(1)" style="text;html=1;strokeColor=none;fillColor=none;align=left;verticalAlign=middle;whiteSpace=wrap;rounded=0;fontSize=10;" parent="ls6sEnhqKrcfrOKvgK-n-9" vertex="1">
          <mxGeometry x="100" y="20" width="100" height="30" as="geometry" />
        </mxCell>
        <mxCell id="ls6sEnhqKrcfrOKvgK-n-12" value="reset_i(1)" style="text;html=1;strokeColor=none;fillColor=none;align=left;verticalAlign=middle;whiteSpace=wrap;rounded=0;fontSize=10;" parent="ls6sEnhqKrcfrOKvgK-n-9" vertex="1">
          <mxGeometry x="100" y="50" width="100" height="30" as="geometry" />
        </mxCell>
        <mxCell id="ls6sEnhqKrcfrOKvgK-n-13" value="cs_i(1)" style="text;html=1;strokeColor=none;fillColor=none;align=left;verticalAlign=middle;whiteSpace=wrap;rounded=0;fontSize=10;" parent="ls6sEnhqKrcfrOKvgK-n-9" vertex="1">
          <mxGeometry x="100" y="110" width="100" height="30" as="geometry" />
        </mxCell>
        <mxCell id="ls6sEnhqKrcfrOKvgK-n-14" value="load_i(1)" style="text;html=1;strokeColor=none;fillColor=none;align=left;verticalAlign=middle;whiteSpace=wrap;rounded=0;fontSize=10;" parent="ls6sEnhqKrcfrOKvgK-n-9" vertex="1">
          <mxGeometry x="100" y="80" width="100" height="30" as="geometry" />
        </mxCell>
        <mxCell id="ls6sEnhqKrcfrOKvgK-n-15" value="data_o(8)" style="text;html=1;strokeColor=none;fillColor=none;align=right;verticalAlign=middle;whiteSpace=wrap;rounded=0;fontSize=10;" parent="ls6sEnhqKrcfrOKvgK-n-9" vertex="1">
          <mxGeometry x="300" y="20" width="100" height="30" as="geometry" />
        </mxCell>
        <mxCell id="ls6sEnhqKrcfrOKvgK-n-16" value="OutPut_Register (port b)" style="text;html=1;strokeColor=none;fillColor=none;align=center;verticalAlign=middle;whiteSpace=wrap;rounded=0;" parent="ls6sEnhqKrcfrOKvgK-n-9" vertex="1">
          <mxGeometry x="100" width="300" height="20" as="geometry" />
        </mxCell>
        <mxCell id="ls6sEnhqKrcfrOKvgK-n-17" value="data_i(8)" style="text;html=1;strokeColor=none;fillColor=none;align=left;verticalAlign=middle;whiteSpace=wrap;rounded=0;fontSize=10;" parent="ls6sEnhqKrcfrOKvgK-n-9" vertex="1">
          <mxGeometry x="100" y="140" width="100" height="30" as="geometry" />
        </mxCell>
        <mxCell id="ls6sEnhqKrcfrOKvgK-n-18" value="&lt;span style=&quot;color: rgb(0, 0, 0); font-family: Helvetica; font-size: 10px; font-style: normal; font-variant-ligatures: normal; font-variant-caps: normal; font-weight: 400; letter-spacing: normal; orphans: 2; text-align: center; text-indent: 0px; text-transform: none; widows: 2; word-spacing: 0px; -webkit-text-stroke-width: 0px; background-color: rgb(251, 251, 251); text-decoration-thickness: initial; text-decoration-style: initial; text-decoration-color: initial; float: none; display: inline !important;&quot;&gt;clk_i(1)&lt;/span&gt;" style="endArrow=classic;html=1;rounded=0;" parent="ls6sEnhqKrcfrOKvgK-n-9" edge="1">
          <mxGeometry width="50" height="50" relative="1" as="geometry">
            <mxPoint y="37" as="sourcePoint" />
            <mxPoint x="100" y="37" as="targetPoint" />
            <mxPoint as="offset" />
          </mxGeometry>
        </mxCell>
        <mxCell id="ls6sEnhqKrcfrOKvgK-n-19" value="&lt;span style=&quot;color: rgb(0, 0, 0); font-family: Helvetica; font-size: 10px; font-style: normal; font-variant-ligatures: normal; font-variant-caps: normal; font-weight: 400; letter-spacing: normal; orphans: 2; text-align: center; text-indent: 0px; text-transform: none; widows: 2; word-spacing: 0px; -webkit-text-stroke-width: 0px; background-color: rgb(251, 251, 251); text-decoration-thickness: initial; text-decoration-style: initial; text-decoration-color: initial; float: none; display: inline !important;&quot;&gt;reset_i(1)&lt;/span&gt;" style="endArrow=classic;html=1;rounded=0;" parent="ls6sEnhqKrcfrOKvgK-n-9" edge="1">
          <mxGeometry width="50" height="50" relative="1" as="geometry">
            <mxPoint y="66" as="sourcePoint" />
            <mxPoint x="100" y="66" as="targetPoint" />
            <mxPoint as="offset" />
          </mxGeometry>
        </mxCell>
        <mxCell id="Z6q24NlugE62Qm38r9RU-1" value="" style="rounded=0;whiteSpace=wrap;html=1;" parent="1" vertex="1">
          <mxGeometry x="-2000" y="-1952" width="301" height="60" as="geometry" />
        </mxCell>
        <mxCell id="Z6q24NlugE62Qm38r9RU-2" value="pc_i(8)" style="text;html=1;strokeColor=none;fillColor=none;align=left;verticalAlign=middle;whiteSpace=wrap;rounded=0;fontSize=10;" parent="1" vertex="1">
          <mxGeometry x="-2000" y="-1932" width="100" height="30" as="geometry" />
        </mxCell>
        <mxCell id="Z6q24NlugE62Qm38r9RU-9" value="ir_o(14)" style="text;html=1;strokeColor=none;fillColor=none;align=right;verticalAlign=middle;whiteSpace=wrap;rounded=0;fontSize=10;" parent="1" vertex="1">
          <mxGeometry x="-1800" y="-1932" width="100" height="30" as="geometry" />
        </mxCell>
        <mxCell id="Z6q24NlugE62Qm38r9RU-10" value="ROM" style="text;html=1;strokeColor=none;fillColor=none;align=center;verticalAlign=middle;whiteSpace=wrap;rounded=0;" parent="1" vertex="1">
          <mxGeometry x="-2000" y="-1952" width="300" height="20" as="geometry" />
        </mxCell>
        <mxCell id="cioz7QeZ2FneSYw7ygIt-1" value="" style="rounded=0;whiteSpace=wrap;html=1;fillColor=none;strokeColor=none;" parent="1" vertex="1">
          <mxGeometry x="-3308" y="-2338" width="120" height="60" as="geometry" />
        </mxCell>
        <mxCell id="cioz7QeZ2FneSYw7ygIt-2" value="" style="rounded=0;whiteSpace=wrap;html=1;fillColor=none;strokeColor=none;" parent="1" vertex="1">
          <mxGeometry x="707" y="-1229" width="120" height="60" as="geometry" />
        </mxCell>
        <mxCell id="hPCpID36Ch2TtJaRzItH-1" value="port_c_4i(4)" style="text;html=1;strokeColor=none;fillColor=none;align=left;verticalAlign=middle;whiteSpace=wrap;rounded=0;fontSize=10;" parent="1" vertex="1">
          <mxGeometry x="-3160" y="-1937" width="60" height="30" as="geometry" />
        </mxCell>
        <mxCell id="hPCpID36Ch2TtJaRzItH-4" value="port_c_8i  (8)" style="edgeStyle=orthogonalEdgeStyle;rounded=0;orthogonalLoop=1;jettySize=auto;html=1;entryX=0;entryY=0.5;entryDx=0;entryDy=0;strokeWidth=3;exitX=1;exitY=0.5;exitDx=0;exitDy=0;" parent="1" source="hPCpID36Ch2TtJaRzItH-1" edge="1">
          <mxGeometry x="-0.9654" relative="1" as="geometry">
            <Array as="points">
              <mxPoint x="-2680" y="-1922" />
              <mxPoint x="-2680" y="-1320" />
              <mxPoint x="-730" y="-1320" />
              <mxPoint x="-730" y="-1446" />
            </Array>
            <mxPoint x="-2800" y="-1922" as="sourcePoint" />
            <mxPoint x="-610" y="-1445.97" as="targetPoint" />
            <mxPoint as="offset" />
          </mxGeometry>
        </mxCell>
        <mxCell id="B3RyaoxiDeVx7k1KpJZ8-1" value="" style="group" parent="1" vertex="1" connectable="0">
          <mxGeometry x="-19" y="-1660" width="400" height="180" as="geometry" />
        </mxCell>
        <mxCell id="B3RyaoxiDeVx7k1KpJZ8-10" value="&lt;span style=&quot;color: rgb(0, 0, 0); font-family: Helvetica; font-size: 10px; font-style: normal; font-variant-ligatures: normal; font-variant-caps: normal; font-weight: 400; letter-spacing: normal; orphans: 2; text-align: center; text-indent: 0px; text-transform: none; widows: 2; word-spacing: 0px; -webkit-text-stroke-width: 0px; background-color: rgb(251, 251, 251); text-decoration-thickness: initial; text-decoration-style: initial; text-decoration-color: initial; float: none; display: inline !important;&quot;&gt;clk_i(1)&lt;/span&gt;" style="endArrow=classic;html=1;rounded=0;" parent="B3RyaoxiDeVx7k1KpJZ8-1" edge="1">
          <mxGeometry width="50" height="50" relative="1" as="geometry">
            <mxPoint y="37" as="sourcePoint" />
            <mxPoint x="100" y="37" as="targetPoint" />
            <mxPoint as="offset" />
          </mxGeometry>
        </mxCell>
        <mxCell id="B3RyaoxiDeVx7k1KpJZ8-11" value="&lt;span style=&quot;color: rgb(0, 0, 0); font-family: Helvetica; font-size: 10px; font-style: normal; font-variant-ligatures: normal; font-variant-caps: normal; font-weight: 400; letter-spacing: normal; orphans: 2; text-align: center; text-indent: 0px; text-transform: none; widows: 2; word-spacing: 0px; -webkit-text-stroke-width: 0px; background-color: rgb(251, 251, 251); text-decoration-thickness: initial; text-decoration-style: initial; text-decoration-color: initial; float: none; display: inline !important;&quot;&gt;reset_i(1)&lt;/span&gt;" style="endArrow=classic;html=1;rounded=0;" parent="B3RyaoxiDeVx7k1KpJZ8-1" edge="1">
          <mxGeometry width="50" height="50" relative="1" as="geometry">
            <mxPoint y="66" as="sourcePoint" />
            <mxPoint x="100" y="66" as="targetPoint" />
            <mxPoint as="offset" />
          </mxGeometry>
        </mxCell>
        <mxCell id="O6qLA5fRurAe9Z5S67Zi-1" value="" style="group" parent="B3RyaoxiDeVx7k1KpJZ8-1" vertex="1" connectable="0">
          <mxGeometry x="100" width="300" height="180" as="geometry" />
        </mxCell>
        <mxCell id="B3RyaoxiDeVx7k1KpJZ8-2" value="" style="rounded=0;whiteSpace=wrap;html=1;" parent="O6qLA5fRurAe9Z5S67Zi-1" vertex="1">
          <mxGeometry width="300" height="180" as="geometry" />
        </mxCell>
        <mxCell id="B3RyaoxiDeVx7k1KpJZ8-3" value="clk_i(1)" style="text;html=1;strokeColor=none;fillColor=none;align=left;verticalAlign=middle;whiteSpace=wrap;rounded=0;fontSize=10;" parent="O6qLA5fRurAe9Z5S67Zi-1" vertex="1">
          <mxGeometry y="20" width="100" height="30" as="geometry" />
        </mxCell>
        <mxCell id="B3RyaoxiDeVx7k1KpJZ8-4" value="reset_i(1)" style="text;html=1;strokeColor=none;fillColor=none;align=left;verticalAlign=middle;whiteSpace=wrap;rounded=0;fontSize=10;" parent="O6qLA5fRurAe9Z5S67Zi-1" vertex="1">
          <mxGeometry y="50" width="100" height="30" as="geometry" />
        </mxCell>
        <mxCell id="B3RyaoxiDeVx7k1KpJZ8-5" value="cs_i(1)" style="text;html=1;strokeColor=none;fillColor=none;align=left;verticalAlign=middle;whiteSpace=wrap;rounded=0;fontSize=10;" parent="O6qLA5fRurAe9Z5S67Zi-1" vertex="1">
          <mxGeometry y="110" width="100" height="30" as="geometry" />
        </mxCell>
        <mxCell id="B3RyaoxiDeVx7k1KpJZ8-6" value="load_i(1)" style="text;html=1;strokeColor=none;fillColor=none;align=left;verticalAlign=middle;whiteSpace=wrap;rounded=0;fontSize=10;" parent="O6qLA5fRurAe9Z5S67Zi-1" vertex="1">
          <mxGeometry y="80" width="100" height="30" as="geometry" />
        </mxCell>
        <mxCell id="B3RyaoxiDeVx7k1KpJZ8-7" value="data_o(8)" style="text;html=1;strokeColor=none;fillColor=none;align=right;verticalAlign=middle;whiteSpace=wrap;rounded=0;fontSize=10;" parent="O6qLA5fRurAe9Z5S67Zi-1" vertex="1">
          <mxGeometry x="200" y="20" width="100" height="30" as="geometry" />
        </mxCell>
        <mxCell id="B3RyaoxiDeVx7k1KpJZ8-8" value="OutPut_Register (port c)" style="text;html=1;strokeColor=none;fillColor=none;align=center;verticalAlign=middle;whiteSpace=wrap;rounded=0;" parent="O6qLA5fRurAe9Z5S67Zi-1" vertex="1">
          <mxGeometry width="300" height="20" as="geometry" />
        </mxCell>
        <mxCell id="B3RyaoxiDeVx7k1KpJZ8-9" value="data_i(8)" style="text;html=1;strokeColor=none;fillColor=none;align=left;verticalAlign=middle;whiteSpace=wrap;rounded=0;fontSize=10;" parent="O6qLA5fRurAe9Z5S67Zi-1" vertex="1">
          <mxGeometry y="140" width="100" height="30" as="geometry" />
        </mxCell>
        <mxCell id="B3RyaoxiDeVx7k1KpJZ8-12" value="nanoProcesseur_inst_data_o(8)" style="edgeStyle=orthogonalEdgeStyle;rounded=0;orthogonalLoop=1;jettySize=auto;html=1;exitX=1;exitY=0.5;exitDx=0;exitDy=0;strokeWidth=3;entryX=0;entryY=0.5;entryDx=0;entryDy=0;" parent="1" source="jxcrHoV1CTlF3j9Qc1w7-55" target="B3RyaoxiDeVx7k1KpJZ8-9" edge="1">
          <mxGeometry x="0.9144" y="-9" relative="1" as="geometry">
            <mxPoint x="-1700" y="-2126.5" as="sourcePoint" />
            <mxPoint x="30" y="-1530" as="targetPoint" />
            <Array as="points">
              <mxPoint x="-1080" y="-2127" />
              <mxPoint x="-1080" y="-1961" />
              <mxPoint x="-100" y="-1961" />
              <mxPoint x="-100" y="-1505" />
            </Array>
            <mxPoint as="offset" />
          </mxGeometry>
        </mxCell>
        <mxCell id="B3RyaoxiDeVx7k1KpJZ8-13" value="wr_np(1)" style="edgeStyle=orthogonalEdgeStyle;rounded=0;orthogonalLoop=1;jettySize=auto;html=1;exitX=1;exitY=0.5;exitDx=0;exitDy=0;entryX=0;entryY=0.5;entryDx=0;entryDy=0;" parent="1" source="jxcrHoV1CTlF3j9Qc1w7-56" target="B3RyaoxiDeVx7k1KpJZ8-6" edge="1">
          <mxGeometry x="0.8922" y="1" relative="1" as="geometry">
            <mxPoint x="-1700" y="-2097" as="sourcePoint" />
            <mxPoint x="-10" y="-1550" as="targetPoint" />
            <Array as="points">
              <mxPoint x="-140" y="-2097" />
              <mxPoint x="-140" y="-1565" />
            </Array>
            <mxPoint as="offset" />
          </mxGeometry>
        </mxCell>
        <mxCell id="B3RyaoxiDeVx7k1KpJZ8-14" value="cs_port_c_i(1)" style="edgeStyle=orthogonalEdgeStyle;rounded=0;orthogonalLoop=1;jettySize=auto;html=1;entryX=0;entryY=0.5;entryDx=0;entryDy=0;exitX=0.988;exitY=0.499;exitDx=0;exitDy=0;exitPerimeter=0;" parent="1" source="ZZoz5is44POjLHSe4rx6-1" target="B3RyaoxiDeVx7k1KpJZ8-5" edge="1">
          <mxGeometry x="0.7964" relative="1" as="geometry">
            <mxPoint x="81" y="-1778" as="targetPoint" />
            <Array as="points">
              <mxPoint x="-200" y="-1775" />
              <mxPoint x="-200" y="-1535" />
            </Array>
            <mxPoint as="offset" />
            <mxPoint x="-870" y="-1780" as="sourcePoint" />
          </mxGeometry>
        </mxCell>
        <mxCell id="Z6q24NlugE62Qm38r9RU-64" value="" style="rounded=0;whiteSpace=wrap;html=1;" parent="1" vertex="1">
          <mxGeometry x="-1210" y="-1870" width="300" height="150" as="geometry" />
        </mxCell>
        <mxCell id="Z6q24NlugE62Qm38r9RU-65" value="addr_i(8)" style="text;html=1;strokeColor=none;fillColor=none;align=left;verticalAlign=middle;whiteSpace=wrap;rounded=0;fontSize=10;" parent="1" vertex="1">
          <mxGeometry x="-1210" y="-1833" width="100" height="30" as="geometry" />
        </mxCell>
        <mxCell id="Z6q24NlugE62Qm38r9RU-70" value="cs_port_a(1)" style="text;html=1;strokeColor=none;fillColor=none;align=right;verticalAlign=middle;whiteSpace=wrap;rounded=0;fontSize=10;" parent="1" vertex="1">
          <mxGeometry x="-1010" y="-1850" width="100" height="30" as="geometry" />
        </mxCell>
        <mxCell id="Z6q24NlugE62Qm38r9RU-71" value="Address_Decode" style="text;html=1;strokeColor=none;fillColor=none;align=center;verticalAlign=middle;whiteSpace=wrap;rounded=0;" parent="1" vertex="1">
          <mxGeometry x="-1210" y="-1870" width="300" height="20" as="geometry" />
        </mxCell>
        <mxCell id="Z6q24NlugE62Qm38r9RU-74" value="cs_port_b_o(1)" style="text;html=1;strokeColor=none;fillColor=none;align=right;verticalAlign=middle;whiteSpace=wrap;rounded=0;fontSize=10;" parent="1" vertex="1">
          <mxGeometry x="-1010" y="-1820" width="100" height="30" as="geometry" />
        </mxCell>
        <mxCell id="Z6q24NlugE62Qm38r9RU-76" value="cs_ram_o(1)" style="text;html=1;strokeColor=none;fillColor=none;align=right;verticalAlign=middle;whiteSpace=wrap;rounded=0;fontSize=10;" parent="1" vertex="1">
          <mxGeometry x="-1010" y="-1760" width="100" height="30" as="geometry" />
        </mxCell>
        <mxCell id="ZZoz5is44POjLHSe4rx6-3" value="cs_port_c_i(1)" style="edgeStyle=orthogonalEdgeStyle;rounded=0;orthogonalLoop=1;jettySize=auto;html=1;exitX=1;exitY=0.5;exitDx=0;exitDy=0;entryX=0;entryY=0.5;entryDx=0;entryDy=0;" parent="1" source="ZZoz5is44POjLHSe4rx6-1" target="ZZoz5is44POjLHSe4rx6-2" edge="1">
          <mxGeometry x="0.5833" relative="1" as="geometry">
            <Array as="points">
              <mxPoint x="-810" y="-1775" />
              <mxPoint x="-810" y="-1595" />
            </Array>
            <mxPoint as="offset" />
          </mxGeometry>
        </mxCell>
        <mxCell id="ZZoz5is44POjLHSe4rx6-1" value="cs_port_c_o(1)" style="text;html=1;strokeColor=none;fillColor=none;align=right;verticalAlign=middle;whiteSpace=wrap;rounded=0;fontSize=10;" parent="1" vertex="1">
          <mxGeometry x="-1010" y="-1790" width="100" height="30" as="geometry" />
        </mxCell>
        <mxCell id="ZZoz5is44POjLHSe4rx6-4" value="port_c_o(8)" style="text;html=1;strokeColor=none;fillColor=none;align=right;verticalAlign=middle;whiteSpace=wrap;rounded=0;fontSize=10;" parent="1" vertex="1">
          <mxGeometry x="620" y="-2040" width="60" height="30" as="geometry" />
        </mxCell>
        <mxCell id="ZZoz5is44POjLHSe4rx6-5" value="port_c_o(8)" style="edgeStyle=orthogonalEdgeStyle;rounded=0;orthogonalLoop=1;jettySize=auto;html=1;exitX=1;exitY=0.5;exitDx=0;exitDy=0;entryX=0.004;entryY=0.626;entryDx=0;entryDy=0;strokeWidth=3;entryPerimeter=0;" parent="1" source="B3RyaoxiDeVx7k1KpJZ8-7" target="ZZoz5is44POjLHSe4rx6-4" edge="1">
          <mxGeometry x="-0.7285" relative="1" as="geometry">
            <mxPoint x="658.98" y="-1927.02" as="targetPoint" />
            <Array as="points">
              <mxPoint x="529" y="-1625" />
              <mxPoint x="529" y="-2021" />
              <mxPoint x="530" y="-2021" />
            </Array>
            <mxPoint x="419.98" y="-1731.02" as="sourcePoint" />
            <mxPoint as="offset" />
          </mxGeometry>
        </mxCell>
        <mxCell id="O6qLA5fRurAe9Z5S67Zi-2" value="" style="group" parent="1" vertex="1" connectable="0">
          <mxGeometry x="-610" y="-1680" width="300" height="260" as="geometry" />
        </mxCell>
        <mxCell id="Z6q24NlugE62Qm38r9RU-13" value="" style="rounded=0;whiteSpace=wrap;html=1;" parent="O6qLA5fRurAe9Z5S67Zi-2" vertex="1">
          <mxGeometry width="300" height="260" as="geometry" />
        </mxCell>
        <mxCell id="Z6q24NlugE62Qm38r9RU-14" value="RAM_data_i(8)" style="text;html=1;strokeColor=none;fillColor=none;align=left;verticalAlign=middle;whiteSpace=wrap;rounded=0;fontSize=10;" parent="O6qLA5fRurAe9Z5S67Zi-2" vertex="1">
          <mxGeometry y="128" width="100" height="30" as="geometry" />
        </mxCell>
        <mxCell id="Z6q24NlugE62Qm38r9RU-15" value="port_a_data_i(8)" style="text;html=1;strokeColor=none;fillColor=none;align=left;verticalAlign=middle;whiteSpace=wrap;rounded=0;fontSize=10;" parent="O6qLA5fRurAe9Z5S67Zi-2" vertex="1">
          <mxGeometry y="158" width="100" height="30" as="geometry" />
        </mxCell>
        <mxCell id="Z6q24NlugE62Qm38r9RU-16" value="port_b_data_i(8)" style="text;html=1;strokeColor=none;fillColor=none;align=left;verticalAlign=middle;whiteSpace=wrap;rounded=0;fontSize=10;" parent="O6qLA5fRurAe9Z5S67Zi-2" vertex="1">
          <mxGeometry y="188" width="100" height="30" as="geometry" />
        </mxCell>
        <mxCell id="Z6q24NlugE62Qm38r9RU-17" value="data_o(8)" style="text;html=1;strokeColor=none;fillColor=none;align=right;verticalAlign=middle;whiteSpace=wrap;rounded=0;fontSize=10;" parent="O6qLA5fRurAe9Z5S67Zi-2" vertex="1">
          <mxGeometry x="200" y="38" width="100" height="30" as="geometry" />
        </mxCell>
        <mxCell id="Z6q24NlugE62Qm38r9RU-21" value="cs_ram_i(1)" style="text;html=1;strokeColor=none;fillColor=none;align=left;verticalAlign=middle;whiteSpace=wrap;rounded=0;fontSize=10;" parent="O6qLA5fRurAe9Z5S67Zi-2" vertex="1">
          <mxGeometry y="98" width="100" height="30" as="geometry" />
        </mxCell>
        <mxCell id="Z6q24NlugE62Qm38r9RU-22" value="Data_Multiplexer" style="text;html=1;strokeColor=none;fillColor=none;align=center;verticalAlign=middle;whiteSpace=wrap;rounded=0;" parent="O6qLA5fRurAe9Z5S67Zi-2" vertex="1">
          <mxGeometry width="300" height="18" as="geometry" />
        </mxCell>
        <mxCell id="Z6q24NlugE62Qm38r9RU-25" value="cs_port_a_i(1)" style="text;html=1;strokeColor=none;fillColor=none;align=left;verticalAlign=middle;whiteSpace=wrap;rounded=0;fontSize=10;" parent="O6qLA5fRurAe9Z5S67Zi-2" vertex="1">
          <mxGeometry y="10" width="100" height="30" as="geometry" />
        </mxCell>
        <mxCell id="Z6q24NlugE62Qm38r9RU-26" value="cs_port_b_i(1)" style="text;html=1;strokeColor=none;fillColor=none;align=left;verticalAlign=middle;whiteSpace=wrap;rounded=0;fontSize=10;" parent="O6qLA5fRurAe9Z5S67Zi-2" vertex="1">
          <mxGeometry y="40" width="100" height="30" as="geometry" />
        </mxCell>
        <mxCell id="hPCpID36Ch2TtJaRzItH-3" value="port_c_data_i(8)" style="text;html=1;strokeColor=none;fillColor=none;align=left;verticalAlign=middle;whiteSpace=wrap;rounded=0;fontSize=10;" parent="O6qLA5fRurAe9Z5S67Zi-2" vertex="1">
          <mxGeometry y="218" width="100" height="30" as="geometry" />
        </mxCell>
        <mxCell id="ZZoz5is44POjLHSe4rx6-2" value="cs_port_c_i(1)" style="text;html=1;strokeColor=none;fillColor=none;align=left;verticalAlign=middle;whiteSpace=wrap;rounded=0;fontSize=10;" parent="O6qLA5fRurAe9Z5S67Zi-2" vertex="1">
          <mxGeometry y="70" width="100" height="30" as="geometry" />
        </mxCell>
      </root>
    </mxGraphModel>
  </diagram>
  <diagram id="U3mCsyhRd-A8AfSXGFd3" name="NanoProcesseur">
    <mxGraphModel dx="7165" dy="4331" grid="1" gridSize="10" guides="1" tooltips="1" connect="1" arrows="1" fold="1" page="1" pageScale="1" pageWidth="827" pageHeight="1169" math="0" shadow="0">
      <root>
        <mxCell id="0" />
        <mxCell id="1" parent="0" />
        <mxCell id="HTLRaHAvY0TiEQAU3Dar-1" value="" style="rounded=0;whiteSpace=wrap;html=1;fillColor=none;strokeColor=none;" parent="1" vertex="1">
          <mxGeometry x="-3308" y="-2338" width="120" height="60" as="geometry" />
        </mxCell>
        <mxCell id="HTLRaHAvY0TiEQAU3Dar-2" value="" style="rounded=0;whiteSpace=wrap;html=1;fillColor=none;strokeColor=none;" parent="1" vertex="1">
          <mxGeometry x="707" y="-630" width="120" height="60" as="geometry" />
        </mxCell>
        <mxCell id="M1Fxh3fQyKv5RR04Pmvz-1" value="" style="rounded=0;whiteSpace=wrap;html=1;" parent="1" vertex="1">
          <mxGeometry x="-3210" y="-2180" width="3840" height="43" as="geometry" />
        </mxCell>
        <mxCell id="M1Fxh3fQyKv5RR04Pmvz-64" value="clk_i(1)" style="text;html=1;strokeColor=none;fillColor=none;align=left;verticalAlign=middle;whiteSpace=wrap;rounded=0;fontSize=10;" parent="1" vertex="1">
          <mxGeometry x="-3210" y="-2057" width="60" height="30" as="geometry" />
        </mxCell>
        <mxCell id="M1Fxh3fQyKv5RR04Pmvz-65" value="reset_i(1)" style="text;html=1;strokeColor=none;fillColor=none;align=left;verticalAlign=middle;whiteSpace=wrap;rounded=0;fontSize=10;" parent="1" vertex="1">
          <mxGeometry x="-3210" y="-2007" width="60" height="30" as="geometry" />
        </mxCell>
        <mxCell id="M1Fxh3fQyKv5RR04Pmvz-66" value="IR_i(14)" style="text;html=1;strokeColor=none;fillColor=none;align=left;verticalAlign=middle;whiteSpace=wrap;rounded=0;fontSize=10;" parent="1" vertex="1">
          <mxGeometry x="-3210" y="-1957" width="60" height="30" as="geometry" />
        </mxCell>
        <mxCell id="M1Fxh3fQyKv5RR04Pmvz-67" value="data_i(8)" style="text;html=1;strokeColor=none;fillColor=none;align=left;verticalAlign=middle;whiteSpace=wrap;rounded=0;fontSize=10;" parent="1" vertex="1">
          <mxGeometry x="-3210" y="-1907" width="60" height="30" as="geometry" />
        </mxCell>
        <mxCell id="M1Fxh3fQyKv5RR04Pmvz-68" value="PC_o(8)" style="text;html=1;strokeColor=none;fillColor=none;align=right;verticalAlign=middle;whiteSpace=wrap;rounded=0;fontSize=10;" parent="1" vertex="1">
          <mxGeometry x="570" y="-1977" width="60" height="30" as="geometry" />
        </mxCell>
        <mxCell id="M1Fxh3fQyKv5RR04Pmvz-69" value="addr_o(8)" style="text;html=1;strokeColor=none;fillColor=none;align=right;verticalAlign=middle;whiteSpace=wrap;rounded=0;fontSize=10;" parent="1" vertex="1">
          <mxGeometry x="570" y="-1927" width="60" height="30" as="geometry" />
        </mxCell>
        <mxCell id="M1Fxh3fQyKv5RR04Pmvz-70" value="data_o(8)" style="text;html=1;strokeColor=none;fillColor=none;align=right;verticalAlign=middle;whiteSpace=wrap;rounded=0;fontSize=10;" parent="1" vertex="1">
          <mxGeometry x="570" y="-1877" width="60" height="30" as="geometry" />
        </mxCell>
        <mxCell id="M1Fxh3fQyKv5RR04Pmvz-71" value="data_wr_o(1)" style="text;html=1;strokeColor=none;fillColor=none;align=right;verticalAlign=middle;whiteSpace=wrap;rounded=0;fontSize=10;" parent="1" vertex="1">
          <mxGeometry x="570" y="-2027" width="60" height="30" as="geometry" />
        </mxCell>
        <mxCell id="SRQ-L8JP4Z42kslTjCw9-34" value="&lt;span style=&quot;color: rgb(0, 0, 0); font-family: Helvetica; font-size: 10px; font-style: normal; font-variant-ligatures: normal; font-variant-caps: normal; font-weight: 400; letter-spacing: normal; orphans: 2; text-align: center; text-indent: 0px; text-transform: none; widows: 2; word-spacing: 0px; -webkit-text-stroke-width: 0px; background-color: rgb(255, 255, 255); text-decoration-thickness: initial; text-decoration-style: initial; text-decoration-color: initial; float: none; display: inline !important;&quot;&gt;PC_o(8)&lt;/span&gt;" style="edgeStyle=orthogonalEdgeStyle;rounded=0;orthogonalLoop=1;jettySize=auto;html=1;exitX=1;exitY=0.5;exitDx=0;exitDy=0;entryX=0;entryY=0.5;entryDx=0;entryDy=0;strokeWidth=3;" parent="1" source="M1Fxh3fQyKv5RR04Pmvz-106" target="M1Fxh3fQyKv5RR04Pmvz-68" edge="1">
          <mxGeometry x="0.2739" relative="1" as="geometry">
            <mxPoint as="offset" />
            <Array as="points">
              <mxPoint x="-480" y="-1990" />
              <mxPoint x="-480" y="-1962" />
            </Array>
          </mxGeometry>
        </mxCell>
        <mxCell id="SRQ-L8JP4Z42kslTjCw9-36" value="&lt;span style=&quot;color: rgb(0, 0, 0); font-family: Helvetica; font-size: 10px; font-style: normal; font-variant-ligatures: normal; font-variant-caps: normal; font-weight: 400; letter-spacing: normal; orphans: 2; text-align: center; text-indent: 0px; text-transform: none; widows: 2; word-spacing: 0px; -webkit-text-stroke-width: 0px; background-color: rgb(255, 255, 255); text-decoration-thickness: initial; text-decoration-style: initial; text-decoration-color: initial; float: none; display: inline !important;&quot;&gt;opcode_o(6)&lt;/span&gt;" style="edgeStyle=orthogonalEdgeStyle;rounded=0;orthogonalLoop=1;jettySize=auto;html=1;entryX=0;entryY=0.5;entryDx=0;entryDy=0;strokeWidth=3;exitX=1;exitY=0.5;exitDx=0;exitDy=0;" parent="1" source="JqEs7bicIO-WFsjXywot-11" target="M1Fxh3fQyKv5RR04Pmvz-128" edge="1">
          <mxGeometry relative="1" as="geometry">
            <mxPoint x="-1460" y="-1690" as="sourcePoint" />
            <Array as="points">
              <mxPoint x="-1290" y="-1705" />
              <mxPoint x="-1290" y="-1275" />
            </Array>
          </mxGeometry>
        </mxCell>
        <mxCell id="SRQ-L8JP4Z42kslTjCw9-33" style="edgeStyle=orthogonalEdgeStyle;rounded=0;orthogonalLoop=1;jettySize=auto;html=1;exitX=1;exitY=0.5;exitDx=0;exitDy=0;entryX=0;entryY=0.5;entryDx=0;entryDy=0;" parent="1" source="SRQ-L8JP4Z42kslTjCw9-28" target="M1Fxh3fQyKv5RR04Pmvz-71" edge="1">
          <mxGeometry relative="1" as="geometry">
            <mxPoint x="201.66666666666652" y="-1807" as="targetPoint" />
            <Array as="points">
              <mxPoint x="-1930" y="-1960" />
              <mxPoint x="-1930" y="-2080" />
              <mxPoint x="-440" y="-2080" />
              <mxPoint x="-440" y="-2012" />
            </Array>
          </mxGeometry>
        </mxCell>
        <mxCell id="SRQ-L8JP4Z42kslTjCw9-35" value="data_wr_o(1)" style="edgeLabel;html=1;align=center;verticalAlign=middle;resizable=0;points=[];" parent="SRQ-L8JP4Z42kslTjCw9-33" vertex="1" connectable="0">
          <mxGeometry x="0.2266" y="5" relative="1" as="geometry">
            <mxPoint as="offset" />
          </mxGeometry>
        </mxCell>
        <mxCell id="SRQ-L8JP4Z42kslTjCw9-56" value="data_o_net(8)" style="edgeStyle=orthogonalEdgeStyle;rounded=0;orthogonalLoop=1;jettySize=auto;html=1;exitX=1;exitY=0.5;exitDx=0;exitDy=0;entryX=0;entryY=0.5;entryDx=0;entryDy=0;strokeWidth=3;" parent="1" source="JqEs7bicIO-WFsjXywot-15" target="M1Fxh3fQyKv5RR04Pmvz-70" edge="1">
          <mxGeometry relative="1" as="geometry">
            <mxPoint x="-1251" y="-172" as="sourcePoint" />
            <mxPoint x="-1665" y="-1062" as="targetPoint" />
            <Array as="points">
              <mxPoint x="440" y="-888" />
              <mxPoint x="440" y="-1862" />
            </Array>
          </mxGeometry>
        </mxCell>
        <mxCell id="SRQ-L8JP4Z42kslTjCw9-59" value="&lt;span style=&quot;color: rgb(0, 0, 0); font-family: Helvetica; font-size: 10px; font-style: normal; font-variant-ligatures: normal; font-variant-caps: normal; font-weight: 400; letter-spacing: normal; orphans: 2; text-align: center; text-indent: 0px; text-transform: none; widows: 2; word-spacing: 0px; -webkit-text-stroke-width: 0px; background-color: rgb(255, 255, 255); text-decoration-thickness: initial; text-decoration-style: initial; text-decoration-color: initial; float: none; display: inline !important;&quot;&gt;addr_o_net(8)&lt;/span&gt;" style="edgeStyle=orthogonalEdgeStyle;rounded=0;orthogonalLoop=1;jettySize=auto;html=1;exitX=1;exitY=0.5;exitDx=0;exitDy=0;entryX=0;entryY=0.5;entryDx=0;entryDy=0;strokeWidth=3;" parent="1" source="JqEs7bicIO-WFsjXywot-8" target="M1Fxh3fQyKv5RR04Pmvz-69" edge="1">
          <mxGeometry x="0.0455" relative="1" as="geometry">
            <mxPoint x="-513.0000000000005" y="-1447" as="sourcePoint" />
            <mxPoint x="-1000" y="-1853.5" as="targetPoint" />
            <Array as="points">
              <mxPoint x="-1370" y="-1675" />
              <mxPoint x="-1370" y="-1760" />
              <mxPoint x="-440" y="-1760" />
              <mxPoint x="-440" y="-1912" />
            </Array>
            <mxPoint as="offset" />
          </mxGeometry>
        </mxCell>
        <mxCell id="SRQ-L8JP4Z42kslTjCw9-60" value="&lt;span style=&quot;color: rgb(0, 0, 0); font-family: Helvetica; font-size: 10px; font-style: normal; font-variant-ligatures: normal; font-variant-caps: normal; font-weight: 400; letter-spacing: normal; orphans: 2; text-align: center; text-indent: 0px; text-transform: none; widows: 2; word-spacing: 0px; -webkit-text-stroke-width: 0px; background-color: rgb(251, 251, 251); text-decoration-thickness: initial; text-decoration-style: initial; text-decoration-color: initial; float: none; display: inline !important;&quot;&gt;clk_i(1)&lt;/span&gt;" style="endArrow=classic;html=1;rounded=0;exitX=1;exitY=0.5;exitDx=0;exitDy=0;" parent="1" source="M1Fxh3fQyKv5RR04Pmvz-64" edge="1">
          <mxGeometry x="0.6667" width="50" height="50" relative="1" as="geometry">
            <mxPoint x="-2880" y="-1997" as="sourcePoint" />
            <mxPoint x="-2830" y="-2042" as="targetPoint" />
            <mxPoint as="offset" />
          </mxGeometry>
        </mxCell>
        <mxCell id="SRQ-L8JP4Z42kslTjCw9-61" value="&lt;span style=&quot;color: rgb(0, 0, 0); font-family: Helvetica; font-size: 10px; font-style: normal; font-variant-ligatures: normal; font-variant-caps: normal; font-weight: 400; letter-spacing: normal; orphans: 2; text-align: center; text-indent: 0px; text-transform: none; widows: 2; word-spacing: 0px; -webkit-text-stroke-width: 0px; background-color: rgb(251, 251, 251); text-decoration-thickness: initial; text-decoration-style: initial; text-decoration-color: initial; float: none; display: inline !important;&quot;&gt;reset_i(1)&lt;/span&gt;" style="endArrow=classic;html=1;rounded=0;exitX=1;exitY=0.5;exitDx=0;exitDy=0;" parent="1" source="M1Fxh3fQyKv5RR04Pmvz-65" edge="1">
          <mxGeometry x="0.6667" width="50" height="50" relative="1" as="geometry">
            <mxPoint x="-3130" y="-1992.38" as="sourcePoint" />
            <mxPoint x="-2830" y="-1992.38" as="targetPoint" />
            <mxPoint as="offset" />
          </mxGeometry>
        </mxCell>
        <mxCell id="fz333wNkJsaE6VCQgzDf-1" value="nanoProcesseur" style="text;html=1;strokeColor=none;fillColor=none;align=left;verticalAlign=middle;whiteSpace=wrap;rounded=0;fontSize=25;" parent="1" vertex="1">
          <mxGeometry x="-3130" y="-2180" width="630" height="40" as="geometry" />
        </mxCell>
        <mxCell id="SRQ-L8JP4Z42kslTjCw9-31" style="edgeStyle=orthogonalEdgeStyle;rounded=0;orthogonalLoop=1;jettySize=auto;html=1;exitX=1;exitY=0.5;exitDx=0;exitDy=0;entryX=0;entryY=0.5;entryDx=0;entryDy=0;" parent="1" source="M1Fxh3fQyKv5RR04Pmvz-64" target="M1Fxh3fQyKv5RR04Pmvz-52" edge="1">
          <mxGeometry relative="1" as="geometry">
            <Array as="points">
              <mxPoint x="-2980" y="-2042" />
              <mxPoint x="-2980" y="-2020" />
              <mxPoint x="-2790" y="-2020" />
              <mxPoint x="-2790" y="-1971" />
            </Array>
          </mxGeometry>
        </mxCell>
        <mxCell id="SRQ-L8JP4Z42kslTjCw9-32" style="edgeStyle=orthogonalEdgeStyle;rounded=0;orthogonalLoop=1;jettySize=auto;html=1;exitX=1;exitY=0.5;exitDx=0;exitDy=0;entryX=0;entryY=0.5;entryDx=0;entryDy=0;" parent="1" source="M1Fxh3fQyKv5RR04Pmvz-65" target="M1Fxh3fQyKv5RR04Pmvz-53" edge="1">
          <mxGeometry relative="1" as="geometry">
            <Array as="points">
              <mxPoint x="-2980" y="-1992" />
              <mxPoint x="-2980" y="-1940" />
              <mxPoint x="-2760" y="-1940" />
            </Array>
          </mxGeometry>
        </mxCell>
        <mxCell id="pCluRfIU9My7dofaEV1Q-3" value="" style="group" parent="1" vertex="1" connectable="0">
          <mxGeometry x="-940.5" y="-833" width="400.5" height="147" as="geometry" />
        </mxCell>
        <mxCell id="M1Fxh3fQyKv5RR04Pmvz-15" value="" style="rounded=0;whiteSpace=wrap;html=1;" parent="pCluRfIU9My7dofaEV1Q-3" vertex="1">
          <mxGeometry x="100.5" width="300" height="147" as="geometry" />
        </mxCell>
        <mxCell id="M1Fxh3fQyKv5RR04Pmvz-16" value="Status_Register" style="text;html=1;strokeColor=none;fillColor=none;align=center;verticalAlign=middle;whiteSpace=wrap;rounded=0;" parent="pCluRfIU9My7dofaEV1Q-3" vertex="1">
          <mxGeometry x="100.5" width="300" height="20" as="geometry" />
        </mxCell>
        <mxCell id="JqEs7bicIO-WFsjXywot-1" value="CCR_load_i(1)" style="text;html=1;strokeColor=none;fillColor=none;align=left;verticalAlign=middle;whiteSpace=wrap;rounded=0;fontSize=10;" parent="pCluRfIU9My7dofaEV1Q-3" vertex="1">
          <mxGeometry x="100" y="110" width="100" height="30" as="geometry" />
        </mxCell>
        <mxCell id="JqEs7bicIO-WFsjXywot-2" value="CCR_i(4)" style="text;html=1;strokeColor=none;fillColor=none;align=left;verticalAlign=middle;whiteSpace=wrap;rounded=0;fontSize=10;" parent="pCluRfIU9My7dofaEV1Q-3" vertex="1">
          <mxGeometry x="100.5" y="80" width="100" height="30" as="geometry" />
        </mxCell>
        <mxCell id="JqEs7bicIO-WFsjXywot-3" value="CCR_o(4)" style="text;html=1;strokeColor=none;fillColor=none;align=right;verticalAlign=middle;whiteSpace=wrap;rounded=0;fontSize=10;" parent="pCluRfIU9My7dofaEV1Q-3" vertex="1">
          <mxGeometry x="300" y="20" width="100" height="30" as="geometry" />
        </mxCell>
        <mxCell id="SRQ-L8JP4Z42kslTjCw9-16" style="edgeStyle=orthogonalEdgeStyle;rounded=0;orthogonalLoop=1;jettySize=auto;html=1;exitX=0.5;exitY=1;exitDx=0;exitDy=0;" parent="pCluRfIU9My7dofaEV1Q-3" source="M1Fxh3fQyKv5RR04Pmvz-15" target="M1Fxh3fQyKv5RR04Pmvz-15" edge="1">
          <mxGeometry relative="1" as="geometry" />
        </mxCell>
        <mxCell id="SRQ-L8JP4Z42kslTjCw9-74" value="clk_i(1)" style="text;html=1;strokeColor=none;fillColor=none;align=left;verticalAlign=middle;whiteSpace=wrap;rounded=0;fontSize=10;" parent="pCluRfIU9My7dofaEV1Q-3" vertex="1">
          <mxGeometry x="100" y="20" width="100" height="30" as="geometry" />
        </mxCell>
        <mxCell id="SRQ-L8JP4Z42kslTjCw9-75" value="reset_i(1)" style="text;html=1;strokeColor=none;fillColor=none;align=left;verticalAlign=middle;whiteSpace=wrap;rounded=0;fontSize=10;" parent="pCluRfIU9My7dofaEV1Q-3" vertex="1">
          <mxGeometry x="100" y="50" width="100" height="30" as="geometry" />
        </mxCell>
        <mxCell id="SRQ-L8JP4Z42kslTjCw9-76" value="&lt;span style=&quot;color: rgb(0, 0, 0); font-family: Helvetica; font-size: 10px; font-style: normal; font-variant-ligatures: normal; font-variant-caps: normal; font-weight: 400; letter-spacing: normal; orphans: 2; text-align: center; text-indent: 0px; text-transform: none; widows: 2; word-spacing: 0px; -webkit-text-stroke-width: 0px; background-color: rgb(251, 251, 251); text-decoration-thickness: initial; text-decoration-style: initial; text-decoration-color: initial; float: none; display: inline !important;&quot;&gt;clk_i(1)&lt;/span&gt;" style="endArrow=classic;html=1;rounded=0;" parent="pCluRfIU9My7dofaEV1Q-3" edge="1">
          <mxGeometry width="50" height="50" relative="1" as="geometry">
            <mxPoint y="34.7100000000002" as="sourcePoint" />
            <mxPoint x="100" y="34.7100000000002" as="targetPoint" />
            <mxPoint as="offset" />
          </mxGeometry>
        </mxCell>
        <mxCell id="SRQ-L8JP4Z42kslTjCw9-77" value="&lt;span style=&quot;color: rgb(0, 0, 0); font-family: Helvetica; font-size: 10px; font-style: normal; font-variant-ligatures: normal; font-variant-caps: normal; font-weight: 400; letter-spacing: normal; orphans: 2; text-align: center; text-indent: 0px; text-transform: none; widows: 2; word-spacing: 0px; -webkit-text-stroke-width: 0px; background-color: rgb(251, 251, 251); text-decoration-thickness: initial; text-decoration-style: initial; text-decoration-color: initial; float: none; display: inline !important;&quot;&gt;reset_i(1)&lt;/span&gt;" style="endArrow=classic;html=1;rounded=0;" parent="pCluRfIU9My7dofaEV1Q-3" edge="1">
          <mxGeometry width="50" height="50" relative="1" as="geometry">
            <mxPoint x="0.5" y="65.08999999999986" as="sourcePoint" />
            <mxPoint x="100.5" y="64.70999999999975" as="targetPoint" />
            <mxPoint as="offset" />
          </mxGeometry>
        </mxCell>
        <mxCell id="SRQ-L8JP4Z42kslTjCw9-27" value="&lt;span style=&quot;color: rgb(0, 0, 0); font-family: Helvetica; font-size: 10px; font-style: normal; font-variant-ligatures: normal; font-variant-caps: normal; font-weight: 400; letter-spacing: normal; orphans: 2; text-align: center; text-indent: 0px; text-transform: none; widows: 2; word-spacing: 0px; -webkit-text-stroke-width: 0px; background-color: rgb(255, 255, 255); text-decoration-thickness: initial; text-decoration-style: initial; text-decoration-color: initial; float: none; display: inline !important;&quot;&gt;CCR_load_o(1)&lt;/span&gt;" style="edgeStyle=orthogonalEdgeStyle;rounded=0;orthogonalLoop=1;jettySize=auto;html=1;exitX=1;exitY=0.5;exitDx=0;exitDy=0;entryX=0;entryY=0.5;entryDx=0;entryDy=0;" parent="1" source="M1Fxh3fQyKv5RR04Pmvz-62" target="JqEs7bicIO-WFsjXywot-1" edge="1">
          <mxGeometry x="0.6838" relative="1" as="geometry">
            <Array as="points">
              <mxPoint x="-2170" y="-1690" />
              <mxPoint x="-2170" y="-470" />
              <mxPoint x="-970" y="-470" />
              <mxPoint x="-970" y="-708" />
            </Array>
            <mxPoint as="offset" />
          </mxGeometry>
        </mxCell>
        <mxCell id="SRQ-L8JP4Z42kslTjCw9-53" style="edgeStyle=orthogonalEdgeStyle;rounded=0;orthogonalLoop=1;jettySize=auto;html=1;exitX=1;exitY=0.5;exitDx=0;exitDy=0;entryX=0;entryY=0.5;entryDx=0;entryDy=0;strokeWidth=3;" parent="1" source="JqEs7bicIO-WFsjXywot-3" target="M1Fxh3fQyKv5RR04Pmvz-55" edge="1">
          <mxGeometry relative="1" as="geometry">
            <mxPoint x="-1260" y="228" as="sourcePoint" />
            <mxPoint x="-2830" y="-1557" as="targetPoint" />
            <Array as="points">
              <mxPoint x="-430" y="-798" />
              <mxPoint x="-430" y="-440" />
              <mxPoint x="-2870" y="-440" />
              <mxPoint x="-2870" y="-1910" />
            </Array>
          </mxGeometry>
        </mxCell>
        <mxCell id="pCluRfIU9My7dofaEV1Q-4" value="" style="group" parent="1" vertex="1" connectable="0">
          <mxGeometry x="-1860.5" y="-923" width="400" height="147" as="geometry" />
        </mxCell>
        <mxCell id="M1Fxh3fQyKv5RR04Pmvz-21" value="" style="rounded=0;whiteSpace=wrap;html=1;" parent="pCluRfIU9My7dofaEV1Q-4" vertex="1">
          <mxGeometry x="100" width="300" height="147" as="geometry" />
        </mxCell>
        <mxCell id="M1Fxh3fQyKv5RR04Pmvz-22" value="W_Register" style="text;html=1;strokeColor=none;fillColor=none;align=center;verticalAlign=middle;whiteSpace=wrap;rounded=0;" parent="pCluRfIU9My7dofaEV1Q-4" vertex="1">
          <mxGeometry x="100" width="300" height="20" as="geometry" />
        </mxCell>
        <mxCell id="M1Fxh3fQyKv5RR04Pmvz-49" value="clk_i(1)" style="text;html=1;strokeColor=none;fillColor=none;align=left;verticalAlign=middle;whiteSpace=wrap;rounded=0;fontSize=10;" parent="pCluRfIU9My7dofaEV1Q-4" vertex="1">
          <mxGeometry x="100" y="50" width="100" height="30" as="geometry" />
        </mxCell>
        <mxCell id="M1Fxh3fQyKv5RR04Pmvz-50" value="reset_i(1)" style="text;html=1;strokeColor=none;fillColor=none;align=left;verticalAlign=middle;whiteSpace=wrap;rounded=0;fontSize=10;" parent="pCluRfIU9My7dofaEV1Q-4" vertex="1">
          <mxGeometry x="100" y="80" width="60" height="30" as="geometry" />
        </mxCell>
        <mxCell id="JqEs7bicIO-WFsjXywot-15" value="Accu_o(8)" style="text;html=1;strokeColor=none;fillColor=none;align=right;verticalAlign=middle;whiteSpace=wrap;rounded=0;fontSize=10;" parent="pCluRfIU9My7dofaEV1Q-4" vertex="1">
          <mxGeometry x="300" y="20" width="100" height="30" as="geometry" />
        </mxCell>
        <mxCell id="JqEs7bicIO-WFsjXywot-18" value="Accu_in(8)" style="text;html=1;strokeColor=none;fillColor=none;align=left;verticalAlign=middle;whiteSpace=wrap;rounded=0;fontSize=10;" parent="pCluRfIU9My7dofaEV1Q-4" vertex="1">
          <mxGeometry x="100" y="20" width="100" height="30" as="geometry" />
        </mxCell>
        <mxCell id="SRQ-L8JP4Z42kslTjCw9-1" value="Accu_load_i(1)" style="text;html=1;strokeColor=none;fillColor=none;align=left;verticalAlign=middle;whiteSpace=wrap;rounded=0;fontSize=10;" parent="pCluRfIU9My7dofaEV1Q-4" vertex="1">
          <mxGeometry x="100" y="110" width="100" height="30" as="geometry" />
        </mxCell>
        <mxCell id="SRQ-L8JP4Z42kslTjCw9-72" value="&lt;span style=&quot;color: rgb(0, 0, 0); font-family: Helvetica; font-size: 10px; font-style: normal; font-variant-ligatures: normal; font-variant-caps: normal; font-weight: 400; letter-spacing: normal; orphans: 2; text-align: center; text-indent: 0px; text-transform: none; widows: 2; word-spacing: 0px; -webkit-text-stroke-width: 0px; background-color: rgb(251, 251, 251); text-decoration-thickness: initial; text-decoration-style: initial; text-decoration-color: initial; float: none; display: inline !important;&quot;&gt;clk_i(1)&lt;/span&gt;" style="endArrow=classic;html=1;rounded=0;" parent="pCluRfIU9My7dofaEV1Q-4" edge="1">
          <mxGeometry width="50" height="50" relative="1" as="geometry">
            <mxPoint y="64.7100000000002" as="sourcePoint" />
            <mxPoint x="100" y="64.7100000000002" as="targetPoint" />
            <mxPoint as="offset" />
          </mxGeometry>
        </mxCell>
        <mxCell id="SRQ-L8JP4Z42kslTjCw9-73" value="&lt;span style=&quot;color: rgb(0, 0, 0); font-family: Helvetica; font-size: 10px; font-style: normal; font-variant-ligatures: normal; font-variant-caps: normal; font-weight: 400; letter-spacing: normal; orphans: 2; text-align: center; text-indent: 0px; text-transform: none; widows: 2; word-spacing: 0px; -webkit-text-stroke-width: 0px; background-color: rgb(251, 251, 251); text-decoration-thickness: initial; text-decoration-style: initial; text-decoration-color: initial; float: none; display: inline !important;&quot;&gt;reset_i(1)&lt;/span&gt;" style="endArrow=classic;html=1;rounded=0;" parent="pCluRfIU9My7dofaEV1Q-4" edge="1">
          <mxGeometry width="50" height="50" relative="1" as="geometry">
            <mxPoint y="95.08999999999986" as="sourcePoint" />
            <mxPoint x="100" y="94.70999999999975" as="targetPoint" />
            <mxPoint as="offset" />
          </mxGeometry>
        </mxCell>
        <mxCell id="SRQ-L8JP4Z42kslTjCw9-26" value="&lt;span style=&quot;color: rgb(0, 0, 0); font-family: Helvetica; font-size: 10px; font-style: normal; font-variant-ligatures: normal; font-variant-caps: normal; font-weight: 400; letter-spacing: normal; orphans: 2; text-align: center; text-indent: 0px; text-transform: none; widows: 2; word-spacing: 0px; -webkit-text-stroke-width: 0px; background-color: rgb(255, 255, 255); text-decoration-thickness: initial; text-decoration-style: initial; text-decoration-color: initial; float: none; display: inline !important;&quot;&gt;Accu_load_o(1)&lt;/span&gt;" style="edgeStyle=orthogonalEdgeStyle;rounded=0;orthogonalLoop=1;jettySize=auto;html=1;exitX=1;exitY=0.5;exitDx=0;exitDy=0;entryX=0;entryY=0.5;entryDx=0;entryDy=0;" parent="1" source="M1Fxh3fQyKv5RR04Pmvz-61" target="SRQ-L8JP4Z42kslTjCw9-1" edge="1">
          <mxGeometry x="0.7529" y="5" relative="1" as="geometry">
            <Array as="points">
              <mxPoint x="-2110" y="-1751" />
              <mxPoint x="-2110" y="-798" />
            </Array>
            <mxPoint x="1" as="offset" />
          </mxGeometry>
        </mxCell>
        <mxCell id="pCluRfIU9My7dofaEV1Q-5" value="" style="group" parent="1" vertex="1" connectable="0">
          <mxGeometry x="-1861" y="-1193" width="400.5" height="177.5" as="geometry" />
        </mxCell>
        <mxCell id="M1Fxh3fQyKv5RR04Pmvz-17" value="" style="rounded=0;whiteSpace=wrap;html=1;" parent="pCluRfIU9My7dofaEV1Q-5" vertex="1">
          <mxGeometry x="100.5" width="300" height="177.5" as="geometry" />
        </mxCell>
        <mxCell id="M1Fxh3fQyKv5RR04Pmvz-18" value="Operandes_Register" style="text;html=1;strokeColor=none;fillColor=none;align=center;verticalAlign=middle;whiteSpace=wrap;rounded=0;" parent="pCluRfIU9My7dofaEV1Q-5" vertex="1">
          <mxGeometry x="100.5" width="300" height="20" as="geometry" />
        </mxCell>
        <mxCell id="M1Fxh3fQyKv5RR04Pmvz-47" value="clk_i(1)" style="text;html=1;strokeColor=none;fillColor=none;align=left;verticalAlign=middle;whiteSpace=wrap;rounded=0;fontSize=10;" parent="pCluRfIU9My7dofaEV1Q-5" vertex="1">
          <mxGeometry x="100.5" y="80" width="100" height="30" as="geometry" />
        </mxCell>
        <mxCell id="M1Fxh3fQyKv5RR04Pmvz-48" value="reset_i(1)" style="text;html=1;strokeColor=none;fillColor=none;align=left;verticalAlign=middle;whiteSpace=wrap;rounded=0;fontSize=10;" parent="pCluRfIU9My7dofaEV1Q-5" vertex="1">
          <mxGeometry x="100" y="110" width="100" height="30" as="geometry" />
        </mxCell>
        <mxCell id="SRQ-L8JP4Z42kslTjCw9-3" value="oper1_i(8)" style="text;html=1;strokeColor=none;fillColor=none;align=left;verticalAlign=middle;whiteSpace=wrap;rounded=0;fontSize=10;" parent="pCluRfIU9My7dofaEV1Q-5" vertex="1">
          <mxGeometry x="100.5" y="20" width="100" height="30" as="geometry" />
        </mxCell>
        <mxCell id="SRQ-L8JP4Z42kslTjCw9-4" value="oper2_i(8)" style="text;html=1;strokeColor=none;fillColor=none;align=left;verticalAlign=middle;whiteSpace=wrap;rounded=0;fontSize=10;" parent="pCluRfIU9My7dofaEV1Q-5" vertex="1">
          <mxGeometry x="100.5" y="50" width="100" height="30" as="geometry" />
        </mxCell>
        <mxCell id="SRQ-L8JP4Z42kslTjCw9-5" value="oper_load_i(1)" style="text;html=1;strokeColor=none;fillColor=none;align=left;verticalAlign=middle;whiteSpace=wrap;rounded=0;fontSize=10;" parent="pCluRfIU9My7dofaEV1Q-5" vertex="1">
          <mxGeometry x="100.5" y="140" width="100" height="30" as="geometry" />
        </mxCell>
        <mxCell id="SRQ-L8JP4Z42kslTjCw9-6" value="operande1_o(8)" style="text;html=1;strokeColor=none;fillColor=none;align=right;verticalAlign=middle;whiteSpace=wrap;rounded=0;fontSize=10;" parent="pCluRfIU9My7dofaEV1Q-5" vertex="1">
          <mxGeometry x="300.5" y="20" width="100" height="30" as="geometry" />
        </mxCell>
        <mxCell id="SRQ-L8JP4Z42kslTjCw9-9" value="operande2_o(8)" style="text;html=1;strokeColor=none;fillColor=none;align=right;verticalAlign=middle;whiteSpace=wrap;rounded=0;fontSize=10;" parent="pCluRfIU9My7dofaEV1Q-5" vertex="1">
          <mxGeometry x="300.5" y="50" width="100" height="30" as="geometry" />
        </mxCell>
        <mxCell id="SRQ-L8JP4Z42kslTjCw9-70" value="&lt;span style=&quot;color: rgb(0, 0, 0); font-family: Helvetica; font-size: 10px; font-style: normal; font-variant-ligatures: normal; font-variant-caps: normal; font-weight: 400; letter-spacing: normal; orphans: 2; text-align: center; text-indent: 0px; text-transform: none; widows: 2; word-spacing: 0px; -webkit-text-stroke-width: 0px; background-color: rgb(251, 251, 251); text-decoration-thickness: initial; text-decoration-style: initial; text-decoration-color: initial; float: none; display: inline !important;&quot;&gt;clk_i(1)&lt;/span&gt;" style="endArrow=classic;html=1;rounded=0;" parent="pCluRfIU9My7dofaEV1Q-5" edge="1">
          <mxGeometry width="50" height="50" relative="1" as="geometry">
            <mxPoint x="0.5" y="94.71000000000026" as="sourcePoint" />
            <mxPoint x="100.5" y="94.71000000000026" as="targetPoint" />
            <mxPoint as="offset" />
          </mxGeometry>
        </mxCell>
        <mxCell id="SRQ-L8JP4Z42kslTjCw9-71" value="&lt;span style=&quot;color: rgb(0, 0, 0); font-family: Helvetica; font-size: 10px; font-style: normal; font-variant-ligatures: normal; font-variant-caps: normal; font-weight: 400; letter-spacing: normal; orphans: 2; text-align: center; text-indent: 0px; text-transform: none; widows: 2; word-spacing: 0px; -webkit-text-stroke-width: 0px; background-color: rgb(251, 251, 251); text-decoration-thickness: initial; text-decoration-style: initial; text-decoration-color: initial; float: none; display: inline !important;&quot;&gt;reset_i(1)&lt;/span&gt;" style="endArrow=classic;html=1;rounded=0;" parent="pCluRfIU9My7dofaEV1Q-5" edge="1">
          <mxGeometry width="50" height="50" relative="1" as="geometry">
            <mxPoint y="125.88000000000011" as="sourcePoint" />
            <mxPoint x="100" y="125.5" as="targetPoint" />
            <mxPoint as="offset" />
          </mxGeometry>
        </mxCell>
        <mxCell id="SRQ-L8JP4Z42kslTjCw9-25" value="&lt;span style=&quot;color: rgb(0, 0, 0); font-family: Helvetica; font-size: 10px; font-style: normal; font-variant-ligatures: normal; font-variant-caps: normal; font-weight: 400; letter-spacing: normal; orphans: 2; text-align: center; text-indent: 0px; text-transform: none; widows: 2; word-spacing: 0px; -webkit-text-stroke-width: 0px; background-color: rgb(251, 251, 251); text-decoration-thickness: initial; text-decoration-style: initial; text-decoration-color: initial; float: none; display: inline !important;&quot;&gt;oper_load_o(1)&lt;/span&gt;" style="edgeStyle=orthogonalEdgeStyle;rounded=0;orthogonalLoop=1;jettySize=auto;html=1;exitX=1;exitY=0.5;exitDx=0;exitDy=0;entryX=0;entryY=0.5;entryDx=0;entryDy=0;" parent="1" source="M1Fxh3fQyKv5RR04Pmvz-60" target="SRQ-L8JP4Z42kslTjCw9-5" edge="1">
          <mxGeometry x="0.7169" relative="1" as="geometry">
            <Array as="points">
              <mxPoint x="-2080" y="-1781" />
              <mxPoint x="-2080" y="-1038" />
            </Array>
            <mxPoint as="offset" />
          </mxGeometry>
        </mxCell>
        <mxCell id="SRQ-L8JP4Z42kslTjCw9-23" value="&lt;span style=&quot;color: rgb(0, 0, 0); font-family: Helvetica; font-size: 10px; font-style: normal; font-variant-ligatures: normal; font-variant-caps: normal; font-weight: 400; letter-spacing: normal; orphans: 2; text-align: center; text-indent: 0px; text-transform: none; widows: 2; word-spacing: 0px; -webkit-text-stroke-width: 0px; background-color: rgb(255, 255, 255); text-decoration-thickness: initial; text-decoration-style: initial; text-decoration-color: initial; float: none; display: inline !important;&quot;&gt;IR_load_o(1)&lt;/span&gt;" style="edgeStyle=orthogonalEdgeStyle;rounded=0;orthogonalLoop=1;jettySize=auto;html=1;exitX=1;exitY=0.5;exitDx=0;exitDy=0;entryX=0;entryY=0.5;entryDx=0;entryDy=0;" parent="1" source="M1Fxh3fQyKv5RR04Pmvz-58" target="JqEs7bicIO-WFsjXywot-6" edge="1">
          <mxGeometry x="0.8213" relative="1" as="geometry">
            <Array as="points">
              <mxPoint x="-2020" y="-1841" />
              <mxPoint x="-2020" y="-1645" />
            </Array>
            <mxPoint as="offset" />
          </mxGeometry>
        </mxCell>
        <mxCell id="SRQ-L8JP4Z42kslTjCw9-50" value="IR_i(14)" style="edgeStyle=orthogonalEdgeStyle;rounded=0;orthogonalLoop=1;jettySize=auto;html=1;exitX=1;exitY=0.5;exitDx=0;exitDy=0;entryX=0;entryY=0.5;entryDx=0;entryDy=0;strokeWidth=3;" parent="1" source="M1Fxh3fQyKv5RR04Pmvz-66" target="JqEs7bicIO-WFsjXywot-7" edge="1">
          <mxGeometry relative="1" as="geometry">
            <Array as="points">
              <mxPoint x="-3040" y="-1942" />
              <mxPoint x="-3040" y="-1615" />
            </Array>
          </mxGeometry>
        </mxCell>
        <mxCell id="SRQ-L8JP4Z42kslTjCw9-55" value="&lt;span style=&quot;color: rgb(0, 0, 0); font-family: Helvetica; font-size: 10px; font-style: normal; font-variant-ligatures: normal; font-variant-caps: normal; font-weight: 400; letter-spacing: normal; orphans: 2; text-align: center; text-indent: 0px; text-transform: none; widows: 2; word-spacing: 0px; -webkit-text-stroke-width: 0px; background-color: rgb(255, 255, 255); text-decoration-thickness: initial; text-decoration-style: initial; text-decoration-color: initial; float: none; display: inline !important;&quot;&gt;opcode_o(6)&lt;/span&gt;" style="edgeStyle=orthogonalEdgeStyle;rounded=0;orthogonalLoop=1;jettySize=auto;html=1;entryX=0;entryY=0.5;entryDx=0;entryDy=0;exitX=1;exitY=0.5;exitDx=0;exitDy=0;strokeWidth=3;" parent="1" source="JqEs7bicIO-WFsjXywot-11" target="M1Fxh3fQyKv5RR04Pmvz-54" edge="1">
          <mxGeometry x="0.2312" relative="1" as="geometry">
            <mxPoint x="-1160" y="-1547" as="sourcePoint" />
            <mxPoint x="-1720" y="-1407" as="targetPoint" />
            <Array as="points">
              <mxPoint x="-1290" y="-1705" />
              <mxPoint x="-1290" y="-1510" />
              <mxPoint x="-2810" y="-1510" />
              <mxPoint x="-2810" y="-1880" />
            </Array>
            <mxPoint as="offset" />
          </mxGeometry>
        </mxCell>
        <mxCell id="SRQ-L8JP4Z42kslTjCw9-22" value="&lt;span style=&quot;color: rgb(0, 0, 0); font-family: Helvetica; font-size: 10px; font-style: normal; font-variant-ligatures: normal; font-variant-caps: normal; font-weight: 400; letter-spacing: normal; orphans: 2; text-align: center; text-indent: 0px; text-transform: none; widows: 2; word-spacing: 0px; -webkit-text-stroke-width: 0px; background-color: rgb(255, 255, 255); text-decoration-thickness: initial; text-decoration-style: initial; text-decoration-color: initial; float: none; display: inline !important;&quot;&gt;PC_load_o(1)&lt;/span&gt;" style="edgeStyle=orthogonalEdgeStyle;rounded=0;orthogonalLoop=1;jettySize=auto;html=1;entryX=0;entryY=0.5;entryDx=0;entryDy=0;exitX=1;exitY=0.5;exitDx=0;exitDy=0;" parent="1" source="M1Fxh3fQyKv5RR04Pmvz-57" target="M1Fxh3fQyKv5RR04Pmvz-96" edge="1">
          <mxGeometry x="0.5143" relative="1" as="geometry">
            <Array as="points">
              <mxPoint x="-2110" y="-1900" />
            </Array>
            <mxPoint as="offset" />
          </mxGeometry>
        </mxCell>
        <mxCell id="SRQ-L8JP4Z42kslTjCw9-20" value="&lt;span style=&quot;color: rgb(0, 0, 0); font-family: Helvetica; font-size: 10px; font-style: normal; font-variant-ligatures: normal; font-variant-caps: normal; font-weight: 400; letter-spacing: normal; orphans: 2; text-align: center; text-indent: 0px; text-transform: none; widows: 2; word-spacing: 0px; -webkit-text-stroke-width: 0px; background-color: rgb(255, 255, 255); text-decoration-thickness: initial; text-decoration-style: initial; text-decoration-color: initial; float: none; display: inline !important;&quot;&gt;PC_in_o(1)&lt;/span&gt;" style="edgeStyle=orthogonalEdgeStyle;rounded=0;orthogonalLoop=1;jettySize=auto;html=1;exitX=1;exitY=0.5;exitDx=0;exitDy=0;entryX=0;entryY=0.5;entryDx=0;entryDy=0;" parent="1" source="M1Fxh3fQyKv5RR04Pmvz-56" target="M1Fxh3fQyKv5RR04Pmvz-99" edge="1">
          <mxGeometry x="0.5132" relative="1" as="geometry">
            <mxPoint x="-2780" y="-1317" as="targetPoint" />
            <Array as="points">
              <mxPoint x="-1930" y="-1930" />
              <mxPoint x="-1759" y="-1930" />
            </Array>
            <mxPoint as="offset" />
          </mxGeometry>
        </mxCell>
        <mxCell id="SRQ-L8JP4Z42kslTjCw9-39" value="&lt;span style=&quot;color: rgb(0, 0, 0); font-family: Helvetica; font-size: 10px; font-style: normal; font-variant-ligatures: normal; font-variant-caps: normal; font-weight: 400; letter-spacing: normal; orphans: 2; text-align: center; text-indent: 0px; text-transform: none; widows: 2; word-spacing: 0px; -webkit-text-stroke-width: 0px; background-color: rgb(255, 255, 255); text-decoration-thickness: initial; text-decoration-style: initial; text-decoration-color: initial; float: none; display: inline !important;&quot;&gt;addr_o_net(8)&lt;/span&gt;" style="edgeStyle=orthogonalEdgeStyle;rounded=0;orthogonalLoop=1;jettySize=auto;html=1;exitX=1;exitY=0.5;exitDx=0;exitDy=0;entryX=0;entryY=0.5;entryDx=0;entryDy=0;strokeWidth=3;" parent="1" source="JqEs7bicIO-WFsjXywot-8" target="kMHocmMXucM_BBJUBmmv-4" edge="1">
          <mxGeometry x="-0.021" y="-8" relative="1" as="geometry">
            <Array as="points">
              <mxPoint x="-1370" y="-1675" />
              <mxPoint x="-1370" y="-1760" />
              <mxPoint x="-1840" y="-1760" />
              <mxPoint x="-1840" y="-1810" />
            </Array>
            <mxPoint as="offset" />
          </mxGeometry>
        </mxCell>
        <mxCell id="pCluRfIU9My7dofaEV1Q-9" value="" style="group" parent="1" vertex="1" connectable="0">
          <mxGeometry x="-840" y="-1310" width="300" height="147" as="geometry" />
        </mxCell>
        <mxCell id="M1Fxh3fQyKv5RR04Pmvz-19" value="" style="rounded=0;whiteSpace=wrap;html=1;" parent="pCluRfIU9My7dofaEV1Q-9" vertex="1">
          <mxGeometry width="300" height="147" as="geometry" />
        </mxCell>
        <mxCell id="M1Fxh3fQyKv5RR04Pmvz-20" value="ALU" style="text;html=1;strokeColor=none;fillColor=none;align=center;verticalAlign=middle;whiteSpace=wrap;rounded=0;" parent="pCluRfIU9My7dofaEV1Q-9" vertex="1">
          <mxGeometry width="300" height="20" as="geometry" />
        </mxCell>
        <mxCell id="M1Fxh3fQyKv5RR04Pmvz-128" value="opcode_i(6)" style="text;html=1;strokeColor=none;fillColor=none;align=left;verticalAlign=middle;whiteSpace=wrap;rounded=0;fontSize=10;" parent="pCluRfIU9My7dofaEV1Q-9" vertex="1">
          <mxGeometry y="20" width="100" height="30" as="geometry" />
        </mxCell>
        <mxCell id="M1Fxh3fQyKv5RR04Pmvz-129" value="operande1_i(8)" style="text;html=1;strokeColor=none;fillColor=none;align=left;verticalAlign=middle;whiteSpace=wrap;rounded=0;fontSize=10;" parent="pCluRfIU9My7dofaEV1Q-9" vertex="1">
          <mxGeometry y="50" width="100" height="30" as="geometry" />
        </mxCell>
        <mxCell id="M1Fxh3fQyKv5RR04Pmvz-130" value="operande2_i(8)" style="text;html=1;strokeColor=none;fillColor=none;align=left;verticalAlign=middle;whiteSpace=wrap;rounded=0;fontSize=10;" parent="pCluRfIU9My7dofaEV1Q-9" vertex="1">
          <mxGeometry y="80" width="100" height="30" as="geometry" />
        </mxCell>
        <mxCell id="M1Fxh3fQyKv5RR04Pmvz-131" value="CCR_i(4)" style="text;html=1;strokeColor=none;fillColor=none;align=left;verticalAlign=middle;whiteSpace=wrap;rounded=0;fontSize=10;" parent="pCluRfIU9My7dofaEV1Q-9" vertex="1">
          <mxGeometry y="110" width="100" height="30" as="geometry" />
        </mxCell>
        <mxCell id="M1Fxh3fQyKv5RR04Pmvz-133" value="ALU_o(16)" style="text;html=1;strokeColor=none;fillColor=none;align=right;verticalAlign=middle;whiteSpace=wrap;rounded=0;fontSize=10;" parent="pCluRfIU9My7dofaEV1Q-9" vertex="1">
          <mxGeometry x="200" y="50" width="100" height="30" as="geometry" />
        </mxCell>
        <mxCell id="M1Fxh3fQyKv5RR04Pmvz-136" value="Z_C_V_N(4)" style="text;html=1;strokeColor=none;fillColor=none;align=right;verticalAlign=middle;whiteSpace=wrap;rounded=0;fontSize=10;" parent="pCluRfIU9My7dofaEV1Q-9" vertex="1">
          <mxGeometry x="200" y="20" width="100" height="30" as="geometry" />
        </mxCell>
        <mxCell id="SRQ-L8JP4Z42kslTjCw9-44" value="&lt;span style=&quot;color: rgb(0, 0, 0); font-family: Helvetica; font-size: 10px; font-style: normal; font-variant-ligatures: normal; font-variant-caps: normal; font-weight: 400; letter-spacing: normal; orphans: 2; text-align: center; text-indent: 0px; text-transform: none; widows: 2; word-spacing: 0px; -webkit-text-stroke-width: 0px; background-color: rgb(255, 255, 255); text-decoration-thickness: initial; text-decoration-style: initial; text-decoration-color: initial; float: none; display: inline !important;&quot;&gt;operande1_o(8)&lt;/span&gt;" style="edgeStyle=orthogonalEdgeStyle;rounded=0;orthogonalLoop=1;jettySize=auto;html=1;exitX=1;exitY=0.5;exitDx=0;exitDy=0;entryX=0;entryY=0.5;entryDx=0;entryDy=0;strokeWidth=3;" parent="1" source="SRQ-L8JP4Z42kslTjCw9-6" target="M1Fxh3fQyKv5RR04Pmvz-129" edge="1">
          <mxGeometry x="0.7203" relative="1" as="geometry">
            <Array as="points">
              <mxPoint x="-1190" y="-1158" />
              <mxPoint x="-1190" y="-1245" />
            </Array>
            <mxPoint as="offset" />
          </mxGeometry>
        </mxCell>
        <mxCell id="SRQ-L8JP4Z42kslTjCw9-45" value="&lt;span style=&quot;color: rgb(0, 0, 0); font-family: Helvetica; font-size: 10px; font-style: normal; font-variant-ligatures: normal; font-variant-caps: normal; font-weight: 400; letter-spacing: normal; orphans: 2; text-align: center; text-indent: 0px; text-transform: none; widows: 2; word-spacing: 0px; -webkit-text-stroke-width: 0px; background-color: rgb(255, 255, 255); text-decoration-thickness: initial; text-decoration-style: initial; text-decoration-color: initial; float: none; display: inline !important;&quot;&gt;operande2_o(8)&lt;/span&gt;" style="edgeStyle=orthogonalEdgeStyle;rounded=0;orthogonalLoop=1;jettySize=auto;html=1;exitX=1;exitY=0.5;exitDx=0;exitDy=0;entryX=0;entryY=0.5;entryDx=0;entryDy=0;strokeWidth=3;" parent="1" source="SRQ-L8JP4Z42kslTjCw9-9" target="M1Fxh3fQyKv5RR04Pmvz-130" edge="1">
          <mxGeometry x="0.757" relative="1" as="geometry">
            <mxPoint as="offset" />
            <Array as="points">
              <mxPoint x="-1160" y="-1128" />
              <mxPoint x="-1160" y="-1215" />
            </Array>
          </mxGeometry>
        </mxCell>
        <mxCell id="SRQ-L8JP4Z42kslTjCw9-51" style="edgeStyle=orthogonalEdgeStyle;rounded=0;orthogonalLoop=1;jettySize=auto;html=1;exitX=1;exitY=0.5;exitDx=0;exitDy=0;entryX=0;entryY=0.5;entryDx=0;entryDy=0;strokeWidth=3;" parent="1" source="JqEs7bicIO-WFsjXywot-3" target="M1Fxh3fQyKv5RR04Pmvz-131" edge="1">
          <mxGeometry relative="1" as="geometry">
            <Array as="points">
              <mxPoint x="-430" y="-798" />
              <mxPoint x="-430" y="-1123" />
              <mxPoint x="-910" y="-1123" />
              <mxPoint x="-910" y="-1185" />
            </Array>
          </mxGeometry>
        </mxCell>
        <mxCell id="SRQ-L8JP4Z42kslTjCw9-46" value="ALU_o(16)" style="edgeStyle=orthogonalEdgeStyle;rounded=0;orthogonalLoop=1;jettySize=auto;html=1;exitX=1;exitY=0.5;exitDx=0;exitDy=0;entryX=0;entryY=0.5;entryDx=0;entryDy=0;strokeWidth=3;" parent="1" source="M1Fxh3fQyKv5RR04Pmvz-133" target="JqEs7bicIO-WFsjXywot-18" edge="1">
          <mxGeometry x="0.2133" relative="1" as="geometry">
            <Array as="points">
              <mxPoint x="-490" y="-1245" />
              <mxPoint x="-490" y="-950" />
              <mxPoint x="-1850" y="-950" />
              <mxPoint x="-1850" y="-888" />
            </Array>
            <mxPoint as="offset" />
          </mxGeometry>
        </mxCell>
        <mxCell id="kMHocmMXucM_BBJUBmmv-9" value="(7 downto 0)" style="edgeLabel;html=1;align=center;verticalAlign=middle;resizable=0;points=[];" parent="SRQ-L8JP4Z42kslTjCw9-46" vertex="1" connectable="0">
          <mxGeometry x="0.9403" relative="1" as="geometry">
            <mxPoint as="offset" />
          </mxGeometry>
        </mxCell>
        <mxCell id="SRQ-L8JP4Z42kslTjCw9-49" value="Z_C_V_N(4)" style="edgeStyle=orthogonalEdgeStyle;rounded=0;orthogonalLoop=1;jettySize=auto;html=1;exitX=1;exitY=0.5;exitDx=0;exitDy=0;entryX=0;entryY=0.5;entryDx=0;entryDy=0;strokeWidth=3;" parent="1" source="M1Fxh3fQyKv5RR04Pmvz-136" target="JqEs7bicIO-WFsjXywot-2" edge="1">
          <mxGeometry relative="1" as="geometry">
            <mxPoint x="-1680" y="325" as="targetPoint" />
            <Array as="points">
              <mxPoint x="-540" y="-1273" />
              <mxPoint x="-460" y="-1273" />
              <mxPoint x="-460" y="-920" />
              <mxPoint x="-970" y="-920" />
              <mxPoint x="-970" y="-738" />
            </Array>
          </mxGeometry>
        </mxCell>
        <mxCell id="SRQ-L8JP4Z42kslTjCw9-24" value="&lt;span style=&quot;color: rgb(0, 0, 0); font-family: Helvetica; font-size: 10px; font-style: normal; font-variant-ligatures: normal; font-variant-caps: normal; font-weight: 400; letter-spacing: normal; orphans: 2; text-align: center; text-indent: 0px; text-transform: none; widows: 2; word-spacing: 0px; -webkit-text-stroke-width: 0px; background-color: rgb(255, 255, 255); text-decoration-thickness: initial; text-decoration-style: initial; text-decoration-color: initial; float: none; display: inline !important;&quot;&gt;oper_sel_o(3)&lt;/span&gt;" style="edgeStyle=orthogonalEdgeStyle;rounded=0;orthogonalLoop=1;jettySize=auto;html=1;exitX=1;exitY=0.5;exitDx=0;exitDy=0;entryX=0;entryY=0.5;entryDx=0;entryDy=0;strokeWidth=3;" parent="1" source="M1Fxh3fQyKv5RR04Pmvz-59" target="M1Fxh3fQyKv5RR04Pmvz-115" edge="1">
          <mxGeometry x="0.5841" relative="1" as="geometry">
            <Array as="points">
              <mxPoint x="-2050" y="-1810" />
              <mxPoint x="-2050" y="-1328" />
            </Array>
            <mxPoint as="offset" />
          </mxGeometry>
        </mxCell>
        <mxCell id="SRQ-L8JP4Z42kslTjCw9-37" style="edgeStyle=orthogonalEdgeStyle;rounded=0;orthogonalLoop=1;jettySize=auto;html=1;exitX=1;exitY=0.5;exitDx=0;exitDy=0;entryX=0;entryY=0.5;entryDx=0;entryDy=0;strokeWidth=3;" parent="1" source="JqEs7bicIO-WFsjXywot-8" target="M1Fxh3fQyKv5RR04Pmvz-118" edge="1">
          <mxGeometry relative="1" as="geometry">
            <Array as="points">
              <mxPoint x="-1370" y="-1675" />
              <mxPoint x="-1370" y="-1480" />
              <mxPoint x="-1850" y="-1480" />
              <mxPoint x="-1850" y="-1418" />
            </Array>
          </mxGeometry>
        </mxCell>
        <mxCell id="SRQ-L8JP4Z42kslTjCw9-38" value="addr_o_net(8)" style="edgeLabel;html=1;align=center;verticalAlign=middle;resizable=0;points=[];" parent="SRQ-L8JP4Z42kslTjCw9-37" vertex="1" connectable="0">
          <mxGeometry x="0.3703" y="-1" relative="1" as="geometry">
            <mxPoint as="offset" />
          </mxGeometry>
        </mxCell>
        <mxCell id="SRQ-L8JP4Z42kslTjCw9-40" value="&lt;span style=&quot;color: rgb(0, 0, 0); font-family: Helvetica; font-size: 10px; font-style: normal; font-variant-ligatures: normal; font-variant-caps: normal; font-weight: 400; letter-spacing: normal; orphans: 2; text-align: center; text-indent: 0px; text-transform: none; widows: 2; word-spacing: 0px; -webkit-text-stroke-width: 0px; background-color: rgb(255, 255, 255); text-decoration-thickness: initial; text-decoration-style: initial; text-decoration-color: initial; float: none; display: inline !important;&quot;&gt;data_i(8)&lt;/span&gt;" style="edgeStyle=orthogonalEdgeStyle;rounded=0;orthogonalLoop=1;jettySize=auto;html=1;exitX=1;exitY=0.5;exitDx=0;exitDy=0;entryX=0;entryY=0.5;entryDx=0;entryDy=0;strokeWidth=3;" parent="1" source="M1Fxh3fQyKv5RR04Pmvz-67" target="M1Fxh3fQyKv5RR04Pmvz-119" edge="1">
          <mxGeometry x="-0.0824" relative="1" as="geometry">
            <Array as="points">
              <mxPoint x="-3070" y="-1892" />
              <mxPoint x="-3070" y="-1298" />
            </Array>
            <mxPoint as="offset" />
          </mxGeometry>
        </mxCell>
        <mxCell id="SRQ-L8JP4Z42kslTjCw9-41" value="&lt;span style=&quot;color: rgb(0, 0, 0); font-family: Helvetica; font-size: 10px; font-style: normal; font-variant-ligatures: normal; font-variant-caps: normal; font-weight: 400; letter-spacing: normal; orphans: 2; text-align: center; text-indent: 0px; text-transform: none; widows: 2; word-spacing: 0px; -webkit-text-stroke-width: 0px; background-color: rgb(255, 255, 255); text-decoration-thickness: initial; text-decoration-style: initial; text-decoration-color: initial; float: none; display: inline !important;&quot;&gt;oper1_o(8)&lt;/span&gt;" style="edgeStyle=orthogonalEdgeStyle;rounded=0;orthogonalLoop=1;jettySize=auto;html=1;exitX=1;exitY=0.5;exitDx=0;exitDy=0;entryX=0;entryY=0.5;entryDx=0;entryDy=0;strokeWidth=3;" parent="1" source="M1Fxh3fQyKv5RR04Pmvz-122" target="SRQ-L8JP4Z42kslTjCw9-3" edge="1">
          <mxGeometry x="0.2039" relative="1" as="geometry">
            <Array as="points">
              <mxPoint x="-1370" y="-1388" />
              <mxPoint x="-1370" y="-1223" />
              <mxPoint x="-1790" y="-1223" />
              <mxPoint x="-1790" y="-1158" />
            </Array>
            <mxPoint as="offset" />
          </mxGeometry>
        </mxCell>
        <mxCell id="SRQ-L8JP4Z42kslTjCw9-42" value="&lt;span style=&quot;color: rgb(0, 0, 0); font-family: Helvetica; font-size: 10px; font-style: normal; font-variant-ligatures: normal; font-variant-caps: normal; font-weight: 400; letter-spacing: normal; orphans: 2; text-align: center; text-indent: 0px; text-transform: none; widows: 2; word-spacing: 0px; -webkit-text-stroke-width: 0px; background-color: rgb(255, 255, 255); text-decoration-thickness: initial; text-decoration-style: initial; text-decoration-color: initial; float: none; display: inline !important;&quot;&gt;oper2_o(8)&lt;/span&gt;" style="edgeStyle=orthogonalEdgeStyle;rounded=0;orthogonalLoop=1;jettySize=auto;html=1;exitX=1;exitY=0.5;exitDx=0;exitDy=0;entryX=0;entryY=0.5;entryDx=0;entryDy=0;strokeWidth=3;" parent="1" source="M1Fxh3fQyKv5RR04Pmvz-125" target="SRQ-L8JP4Z42kslTjCw9-4" edge="1">
          <mxGeometry x="-0.077" relative="1" as="geometry">
            <Array as="points">
              <mxPoint x="-1400" y="-1358" />
              <mxPoint x="-1400" y="-1253" />
              <mxPoint x="-1820" y="-1253" />
              <mxPoint x="-1820" y="-1128" />
            </Array>
            <mxPoint as="offset" />
          </mxGeometry>
        </mxCell>
        <mxCell id="oi5mxDYmSgCu4E1H_VXa-1" value="" style="group" parent="1" vertex="1" connectable="0">
          <mxGeometry x="-1859.5" y="-679" width="400" height="147" as="geometry" />
        </mxCell>
        <mxCell id="oi5mxDYmSgCu4E1H_VXa-2" value="" style="rounded=0;whiteSpace=wrap;html=1;" parent="oi5mxDYmSgCu4E1H_VXa-1" vertex="1">
          <mxGeometry x="100" width="300" height="147" as="geometry" />
        </mxCell>
        <mxCell id="oi5mxDYmSgCu4E1H_VXa-3" value="W_Register" style="text;html=1;strokeColor=none;fillColor=none;align=center;verticalAlign=middle;whiteSpace=wrap;rounded=0;" parent="oi5mxDYmSgCu4E1H_VXa-1" vertex="1">
          <mxGeometry x="100" width="300" height="20" as="geometry" />
        </mxCell>
        <mxCell id="oi5mxDYmSgCu4E1H_VXa-4" value="clk_i(1)" style="text;html=1;strokeColor=none;fillColor=none;align=left;verticalAlign=middle;whiteSpace=wrap;rounded=0;fontSize=10;" parent="oi5mxDYmSgCu4E1H_VXa-1" vertex="1">
          <mxGeometry x="100" y="50" width="100" height="30" as="geometry" />
        </mxCell>
        <mxCell id="oi5mxDYmSgCu4E1H_VXa-5" value="reset_i(1)" style="text;html=1;strokeColor=none;fillColor=none;align=left;verticalAlign=middle;whiteSpace=wrap;rounded=0;fontSize=10;" parent="oi5mxDYmSgCu4E1H_VXa-1" vertex="1">
          <mxGeometry x="100" y="80" width="60" height="30" as="geometry" />
        </mxCell>
        <mxCell id="oi5mxDYmSgCu4E1H_VXa-6" value="Accu_o(8)" style="text;html=1;strokeColor=none;fillColor=none;align=right;verticalAlign=middle;whiteSpace=wrap;rounded=0;fontSize=10;" parent="oi5mxDYmSgCu4E1H_VXa-1" vertex="1">
          <mxGeometry x="300" y="20" width="100" height="30" as="geometry" />
        </mxCell>
        <mxCell id="oi5mxDYmSgCu4E1H_VXa-7" value="Accu_in(8)" style="text;html=1;strokeColor=none;fillColor=none;align=left;verticalAlign=middle;whiteSpace=wrap;rounded=0;fontSize=10;" parent="oi5mxDYmSgCu4E1H_VXa-1" vertex="1">
          <mxGeometry x="100" y="20" width="100" height="30" as="geometry" />
        </mxCell>
        <mxCell id="oi5mxDYmSgCu4E1H_VXa-8" value="Accu_load_i(1)" style="text;html=1;strokeColor=none;fillColor=none;align=left;verticalAlign=middle;whiteSpace=wrap;rounded=0;fontSize=10;" parent="oi5mxDYmSgCu4E1H_VXa-1" vertex="1">
          <mxGeometry x="100" y="110" width="100" height="30" as="geometry" />
        </mxCell>
        <mxCell id="oi5mxDYmSgCu4E1H_VXa-9" value="&lt;span style=&quot;color: rgb(0, 0, 0); font-family: Helvetica; font-size: 10px; font-style: normal; font-variant-ligatures: normal; font-variant-caps: normal; font-weight: 400; letter-spacing: normal; orphans: 2; text-align: center; text-indent: 0px; text-transform: none; widows: 2; word-spacing: 0px; -webkit-text-stroke-width: 0px; background-color: rgb(251, 251, 251); text-decoration-thickness: initial; text-decoration-style: initial; text-decoration-color: initial; float: none; display: inline !important;&quot;&gt;clk_i(1)&lt;/span&gt;" style="endArrow=classic;html=1;rounded=0;" parent="oi5mxDYmSgCu4E1H_VXa-1" edge="1">
          <mxGeometry width="50" height="50" relative="1" as="geometry">
            <mxPoint y="64.7100000000002" as="sourcePoint" />
            <mxPoint x="100" y="64.7100000000002" as="targetPoint" />
            <mxPoint as="offset" />
          </mxGeometry>
        </mxCell>
        <mxCell id="oi5mxDYmSgCu4E1H_VXa-10" value="&lt;span style=&quot;color: rgb(0, 0, 0); font-family: Helvetica; font-size: 10px; font-style: normal; font-variant-ligatures: normal; font-variant-caps: normal; font-weight: 400; letter-spacing: normal; orphans: 2; text-align: center; text-indent: 0px; text-transform: none; widows: 2; word-spacing: 0px; -webkit-text-stroke-width: 0px; background-color: rgb(251, 251, 251); text-decoration-thickness: initial; text-decoration-style: initial; text-decoration-color: initial; float: none; display: inline !important;&quot;&gt;reset_i(1)&lt;/span&gt;" style="endArrow=classic;html=1;rounded=0;" parent="oi5mxDYmSgCu4E1H_VXa-1" edge="1">
          <mxGeometry width="50" height="50" relative="1" as="geometry">
            <mxPoint y="95.08999999999986" as="sourcePoint" />
            <mxPoint x="100" y="94.70999999999975" as="targetPoint" />
            <mxPoint as="offset" />
          </mxGeometry>
        </mxCell>
        <mxCell id="M1Fxh3fQyKv5RR04Pmvz-3" value="" style="rounded=0;whiteSpace=wrap;html=1;" parent="1" vertex="1">
          <mxGeometry x="-2760" y="-2005.5" width="300" height="335.5" as="geometry" />
        </mxCell>
        <mxCell id="M1Fxh3fQyKv5RR04Pmvz-4" value="Sequenceur" style="text;html=1;strokeColor=none;fillColor=none;align=center;verticalAlign=middle;whiteSpace=wrap;rounded=0;" parent="1" vertex="1">
          <mxGeometry x="-2760" y="-2005.5" width="300" height="20" as="geometry" />
        </mxCell>
        <mxCell id="M1Fxh3fQyKv5RR04Pmvz-52" value="clk_i(1)" style="text;html=1;strokeColor=none;fillColor=none;align=left;verticalAlign=middle;whiteSpace=wrap;rounded=0;fontSize=10;" parent="1" vertex="1">
          <mxGeometry x="-2760" y="-1985.5" width="100" height="30" as="geometry" />
        </mxCell>
        <mxCell id="M1Fxh3fQyKv5RR04Pmvz-53" value="reset_i(1)" style="text;html=1;strokeColor=none;fillColor=none;align=left;verticalAlign=middle;whiteSpace=wrap;rounded=0;fontSize=10;" parent="1" vertex="1">
          <mxGeometry x="-2760" y="-1955.5" width="100" height="30" as="geometry" />
        </mxCell>
        <mxCell id="M1Fxh3fQyKv5RR04Pmvz-54" value="opcode_i(6)" style="text;html=1;strokeColor=none;fillColor=none;align=left;verticalAlign=middle;whiteSpace=wrap;rounded=0;fontSize=10;" parent="1" vertex="1">
          <mxGeometry x="-2760" y="-1895.5" width="100" height="30" as="geometry" />
        </mxCell>
        <mxCell id="M1Fxh3fQyKv5RR04Pmvz-55" value="CCR_i(4)" style="text;html=1;strokeColor=none;fillColor=none;align=left;verticalAlign=middle;whiteSpace=wrap;rounded=0;fontSize=10;" parent="1" vertex="1">
          <mxGeometry x="-2760" y="-1925.5" width="100" height="30" as="geometry" />
        </mxCell>
        <mxCell id="M1Fxh3fQyKv5RR04Pmvz-56" value="PC_inc_o(1)" style="text;html=1;strokeColor=none;fillColor=none;align=right;verticalAlign=middle;whiteSpace=wrap;rounded=0;fontSize=10;" parent="1" vertex="1">
          <mxGeometry x="-2560" y="-1945.5" width="100" height="30" as="geometry" />
        </mxCell>
        <mxCell id="M1Fxh3fQyKv5RR04Pmvz-57" value="PC_load_o(1)" style="text;html=1;strokeColor=none;fillColor=none;align=right;verticalAlign=middle;whiteSpace=wrap;rounded=0;fontSize=10;" parent="1" vertex="1">
          <mxGeometry x="-2560" y="-1915.5" width="100" height="30" as="geometry" />
        </mxCell>
        <mxCell id="M1Fxh3fQyKv5RR04Pmvz-58" value="IR_load_o(1)" style="text;html=1;strokeColor=none;fillColor=none;align=right;verticalAlign=middle;whiteSpace=wrap;rounded=0;fontSize=10;" parent="1" vertex="1">
          <mxGeometry x="-2560" y="-1855.5" width="100" height="30" as="geometry" />
        </mxCell>
        <mxCell id="M1Fxh3fQyKv5RR04Pmvz-59" value="oper_sel_o(3)" style="text;html=1;strokeColor=none;fillColor=none;align=right;verticalAlign=middle;whiteSpace=wrap;rounded=0;fontSize=10;" parent="1" vertex="1">
          <mxGeometry x="-2560" y="-1825.5" width="100" height="30" as="geometry" />
        </mxCell>
        <mxCell id="M1Fxh3fQyKv5RR04Pmvz-60" value="oper_load_o(1)" style="text;html=1;strokeColor=none;fillColor=none;align=right;verticalAlign=middle;whiteSpace=wrap;rounded=0;fontSize=10;" parent="1" vertex="1">
          <mxGeometry x="-2560" y="-1795.5" width="100" height="30" as="geometry" />
        </mxCell>
        <mxCell id="M1Fxh3fQyKv5RR04Pmvz-61" value="Accu_load_o(1)" style="text;html=1;strokeColor=none;fillColor=none;align=right;verticalAlign=middle;whiteSpace=wrap;rounded=0;fontSize=10;" parent="1" vertex="1">
          <mxGeometry x="-2560" y="-1765.5" width="100" height="30" as="geometry" />
        </mxCell>
        <mxCell id="M1Fxh3fQyKv5RR04Pmvz-62" value="CCR_load_o(1)" style="text;html=1;strokeColor=none;fillColor=none;align=right;verticalAlign=middle;whiteSpace=wrap;rounded=0;fontSize=10;" parent="1" vertex="1">
          <mxGeometry x="-2560" y="-1705.5" width="100" height="30" as="geometry" />
        </mxCell>
        <mxCell id="SRQ-L8JP4Z42kslTjCw9-28" value="data_wr_o(1)" style="text;html=1;strokeColor=none;fillColor=none;align=right;verticalAlign=middle;whiteSpace=wrap;rounded=0;fontSize=10;" parent="1" vertex="1">
          <mxGeometry x="-2560" y="-1975.5" width="100" height="30" as="geometry" />
        </mxCell>
        <mxCell id="CfkfcIupB_nLhwzRO1XC-1" value="SecAccu_load_o(1)" style="text;html=1;strokeColor=none;fillColor=none;align=right;verticalAlign=middle;whiteSpace=wrap;rounded=0;fontSize=10;" parent="1" vertex="1">
          <mxGeometry x="-2560" y="-1735.5" width="100" height="30" as="geometry" />
        </mxCell>
        <mxCell id="M1Fxh3fQyKv5RR04Pmvz-13" value="" style="rounded=0;whiteSpace=wrap;html=1;" parent="1" vertex="1">
          <mxGeometry x="-1760" y="-1453" width="300" height="180" as="geometry" />
        </mxCell>
        <mxCell id="M1Fxh3fQyKv5RR04Pmvz-14" value="Operandes_Multiplexer" style="text;html=1;strokeColor=none;fillColor=none;align=center;verticalAlign=middle;whiteSpace=wrap;rounded=0;" parent="1" vertex="1">
          <mxGeometry x="-1759.5" y="-1453" width="300" height="20" as="geometry" />
        </mxCell>
        <mxCell id="M1Fxh3fQyKv5RR04Pmvz-115" value="sel_i(3)" style="text;html=1;strokeColor=none;fillColor=none;align=left;verticalAlign=middle;whiteSpace=wrap;rounded=0;fontSize=10;" parent="1" vertex="1">
          <mxGeometry x="-1760" y="-1343" width="100" height="30" as="geometry" />
        </mxCell>
        <mxCell id="M1Fxh3fQyKv5RR04Pmvz-117" value="Accu_i(8)" style="text;html=1;strokeColor=none;fillColor=none;align=left;verticalAlign=middle;whiteSpace=wrap;rounded=0;fontSize=10;" parent="1" vertex="1">
          <mxGeometry x="-1759.5" y="-1403" width="100" height="30" as="geometry" />
        </mxCell>
        <mxCell id="M1Fxh3fQyKv5RR04Pmvz-118" value="const_i(8)" style="text;html=1;strokeColor=none;fillColor=none;align=left;verticalAlign=middle;whiteSpace=wrap;rounded=0;fontSize=10;" parent="1" vertex="1">
          <mxGeometry x="-1759.5" y="-1433" width="100" height="30" as="geometry" />
        </mxCell>
        <mxCell id="M1Fxh3fQyKv5RR04Pmvz-119" value="data_i(8)" style="text;html=1;strokeColor=none;fillColor=none;align=left;verticalAlign=middle;whiteSpace=wrap;rounded=0;fontSize=10;" parent="1" vertex="1">
          <mxGeometry x="-1760" y="-1313" width="100" height="30" as="geometry" />
        </mxCell>
        <mxCell id="M1Fxh3fQyKv5RR04Pmvz-122" value="oper1_o(8)" style="text;html=1;strokeColor=none;fillColor=none;align=right;verticalAlign=middle;whiteSpace=wrap;rounded=0;fontSize=10;" parent="1" vertex="1">
          <mxGeometry x="-1560" y="-1403" width="100" height="30" as="geometry" />
        </mxCell>
        <mxCell id="M1Fxh3fQyKv5RR04Pmvz-125" value="oper2_o(8)" style="text;html=1;strokeColor=none;fillColor=none;align=right;verticalAlign=middle;whiteSpace=wrap;rounded=0;fontSize=10;" parent="1" vertex="1">
          <mxGeometry x="-1560" y="-1373" width="100" height="30" as="geometry" />
        </mxCell>
        <mxCell id="CfkfcIupB_nLhwzRO1XC-2" value="SecAccu_i(8)" style="text;html=1;strokeColor=none;fillColor=none;align=left;verticalAlign=middle;whiteSpace=wrap;rounded=0;fontSize=10;" parent="1" vertex="1">
          <mxGeometry x="-1760" y="-1373" width="100" height="30" as="geometry" />
        </mxCell>
        <mxCell id="CfkfcIupB_nLhwzRO1XC-3" value="secdata_o_net(8)" style="edgeStyle=orthogonalEdgeStyle;rounded=0;orthogonalLoop=1;jettySize=auto;html=1;entryX=0;entryY=0.5;entryDx=0;entryDy=0;strokeWidth=3;" parent="1" target="CfkfcIupB_nLhwzRO1XC-2" edge="1">
          <mxGeometry y="2" relative="1" as="geometry">
            <Array as="points">
              <mxPoint x="-1920" y="-1358" />
            </Array>
            <mxPoint x="-1920" y="-1358" as="sourcePoint" />
            <mxPoint as="offset" />
            <mxPoint x="-1759" y="-1148" as="targetPoint" />
          </mxGeometry>
        </mxCell>
        <mxCell id="CfkfcIupB_nLhwzRO1XC-4" value="&lt;span style=&quot;color: rgb(0, 0, 0); font-family: Helvetica; font-size: 10px; font-style: normal; font-variant-ligatures: normal; font-variant-caps: normal; font-weight: 400; letter-spacing: normal; orphans: 2; text-align: center; text-indent: 0px; text-transform: none; widows: 2; word-spacing: 0px; -webkit-text-stroke-width: 0px; background-color: rgb(255, 255, 255); text-decoration-thickness: initial; text-decoration-style: initial; text-decoration-color: initial; float: none; display: inline !important;&quot;&gt;SecAccu_load_o(1)&lt;/span&gt;" style="edgeStyle=orthogonalEdgeStyle;rounded=0;orthogonalLoop=1;jettySize=auto;html=1;exitX=1;exitY=0.5;exitDx=0;exitDy=0;entryX=0;entryY=0.5;entryDx=0;entryDy=0;" parent="1" source="CfkfcIupB_nLhwzRO1XC-1" target="oi5mxDYmSgCu4E1H_VXa-8" edge="1">
          <mxGeometry x="0.7529" y="5" relative="1" as="geometry">
            <Array as="points">
              <mxPoint x="-2140" y="-1721" />
              <mxPoint x="-2140" y="-554" />
            </Array>
            <mxPoint x="1" as="offset" />
            <mxPoint x="-2459.5" y="-1530" as="sourcePoint" />
            <mxPoint x="-1759.5" y="-615" as="targetPoint" />
          </mxGeometry>
        </mxCell>
        <mxCell id="CfkfcIupB_nLhwzRO1XC-5" value="ALU_o(16)" style="edgeStyle=orthogonalEdgeStyle;rounded=0;orthogonalLoop=1;jettySize=auto;html=1;exitX=0.994;exitY=0.442;exitDx=0;exitDy=0;entryX=0;entryY=0.5;entryDx=0;entryDy=0;strokeWidth=3;exitPerimeter=0;" parent="1" source="M1Fxh3fQyKv5RR04Pmvz-19" target="oi5mxDYmSgCu4E1H_VXa-7" edge="1">
          <mxGeometry x="0.1173" relative="1" as="geometry">
            <Array as="points">
              <mxPoint x="-490" y="-1245" />
              <mxPoint x="-490" y="-950" />
              <mxPoint x="-1190" y="-950" />
              <mxPoint x="-1190" y="-713" />
              <mxPoint x="-1850" y="-713" />
              <mxPoint x="-1850" y="-644" />
            </Array>
            <mxPoint x="-530" y="-1235" as="sourcePoint" />
            <mxPoint x="-1750" y="-878" as="targetPoint" />
            <mxPoint as="offset" />
          </mxGeometry>
        </mxCell>
        <mxCell id="kMHocmMXucM_BBJUBmmv-10" value="(15 downto 8)" style="edgeLabel;html=1;align=center;verticalAlign=middle;resizable=0;points=[];" parent="CfkfcIupB_nLhwzRO1XC-5" vertex="1" connectable="0">
          <mxGeometry x="0.9506" y="1" relative="1" as="geometry">
            <mxPoint as="offset" />
          </mxGeometry>
        </mxCell>
        <mxCell id="kMHocmMXucM_BBJUBmmv-1" value="PC_source_o(1)" style="text;html=1;strokeColor=none;fillColor=none;align=right;verticalAlign=middle;whiteSpace=wrap;rounded=0;fontSize=10;" parent="1" vertex="1">
          <mxGeometry x="-2560" y="-1885.5" width="100" height="30" as="geometry" />
        </mxCell>
        <mxCell id="kMHocmMXucM_BBJUBmmv-3" value="&lt;span style=&quot;color: rgb(0, 0, 0); font-family: Helvetica; font-size: 10px; font-style: normal; font-variant-ligatures: normal; font-variant-caps: normal; font-weight: 400; letter-spacing: normal; orphans: 2; text-align: center; text-indent: 0px; text-transform: none; widows: 2; word-spacing: 0px; -webkit-text-stroke-width: 0px; background-color: rgb(255, 255, 255); text-decoration-thickness: initial; text-decoration-style: initial; text-decoration-color: initial; float: none; display: inline !important;&quot;&gt;PC_source_o(1)&lt;/span&gt;" style="edgeStyle=orthogonalEdgeStyle;rounded=0;orthogonalLoop=1;jettySize=auto;html=1;entryX=0;entryY=0.5;entryDx=0;entryDy=0;exitX=1;exitY=0.5;exitDx=0;exitDy=0;" parent="1" source="kMHocmMXucM_BBJUBmmv-1" target="kMHocmMXucM_BBJUBmmv-2" edge="1">
          <mxGeometry x="0.5143" relative="1" as="geometry">
            <Array as="points">
              <mxPoint x="-2109" y="-1870" />
            </Array>
            <mxPoint as="offset" />
            <mxPoint x="-2459" y="-1870.79" as="sourcePoint" />
            <mxPoint x="-1759" y="-1870.79" as="targetPoint" />
          </mxGeometry>
        </mxCell>
        <mxCell id="kMHocmMXucM_BBJUBmmv-5" value="data_o_net(8)" style="edgeStyle=orthogonalEdgeStyle;rounded=0;orthogonalLoop=1;jettySize=auto;html=1;entryX=0;entryY=0.5;entryDx=0;entryDy=0;strokeWidth=3;" parent="1" target="SRQ-L8JP4Z42kslTjCw9-21" edge="1">
          <mxGeometry x="-0.0062" relative="1" as="geometry">
            <Array as="points">
              <mxPoint x="-1920" y="-1840" />
            </Array>
            <mxPoint x="-1920" y="-1840" as="sourcePoint" />
            <mxPoint as="offset" />
            <mxPoint x="-1759" y="-1455" as="targetPoint" />
          </mxGeometry>
        </mxCell>
        <mxCell id="SRQ-L8JP4Z42kslTjCw9-47" value="data_o_net(8)" style="edgeStyle=orthogonalEdgeStyle;rounded=0;orthogonalLoop=1;jettySize=auto;html=1;entryX=0;entryY=0.5;entryDx=0;entryDy=0;strokeWidth=3;" parent="1" target="M1Fxh3fQyKv5RR04Pmvz-117" edge="1">
          <mxGeometry x="0.0092" relative="1" as="geometry">
            <Array as="points">
              <mxPoint x="-1920" y="-1388" />
            </Array>
            <mxPoint x="-1920" y="-1388" as="sourcePoint" />
            <mxPoint as="offset" />
          </mxGeometry>
        </mxCell>
        <mxCell id="kMHocmMXucM_BBJUBmmv-6" value="" style="group" parent="1" vertex="1" connectable="0">
          <mxGeometry x="-1860" y="-2025" width="400.5" height="235" as="geometry" />
        </mxCell>
        <mxCell id="M1Fxh3fQyKv5RR04Pmvz-9" value="" style="rounded=0;whiteSpace=wrap;html=1;" parent="kMHocmMXucM_BBJUBmmv-6" vertex="1">
          <mxGeometry x="100.5" width="300" height="235" as="geometry" />
        </mxCell>
        <mxCell id="M1Fxh3fQyKv5RR04Pmvz-10" value="Program_Counter" style="text;html=1;strokeColor=none;fillColor=none;align=center;verticalAlign=middle;whiteSpace=wrap;rounded=0;" parent="kMHocmMXucM_BBJUBmmv-6" vertex="1">
          <mxGeometry x="100" width="300" height="20" as="geometry" />
        </mxCell>
        <mxCell id="M1Fxh3fQyKv5RR04Pmvz-41" value="clk_i(1)" style="text;html=1;strokeColor=none;fillColor=none;align=left;verticalAlign=middle;whiteSpace=wrap;rounded=0;fontSize=10;" parent="kMHocmMXucM_BBJUBmmv-6" vertex="1">
          <mxGeometry x="100.5" y="20" width="100" height="30" as="geometry" />
        </mxCell>
        <mxCell id="M1Fxh3fQyKv5RR04Pmvz-42" value="reset_i(1)" style="text;html=1;strokeColor=none;fillColor=none;align=left;verticalAlign=middle;whiteSpace=wrap;rounded=0;fontSize=10;" parent="kMHocmMXucM_BBJUBmmv-6" vertex="1">
          <mxGeometry x="100" y="50" width="100" height="30" as="geometry" />
        </mxCell>
        <mxCell id="M1Fxh3fQyKv5RR04Pmvz-96" value="PC_load_i(1)" style="text;html=1;strokeColor=none;fillColor=none;align=left;verticalAlign=middle;whiteSpace=wrap;rounded=0;fontSize=10;" parent="kMHocmMXucM_BBJUBmmv-6" vertex="1">
          <mxGeometry x="100" y="110" width="100" height="30" as="geometry" />
        </mxCell>
        <mxCell id="M1Fxh3fQyKv5RR04Pmvz-99" value="PC_inc_i(1)" style="text;html=1;strokeColor=none;fillColor=none;align=left;verticalAlign=middle;whiteSpace=wrap;rounded=0;fontSize=10;" parent="kMHocmMXucM_BBJUBmmv-6" vertex="1">
          <mxGeometry x="100.5" y="80" width="100" height="30" as="geometry" />
        </mxCell>
        <mxCell id="M1Fxh3fQyKv5RR04Pmvz-106" value="PC_o(8)" style="text;html=1;strokeColor=none;fillColor=none;align=right;verticalAlign=middle;whiteSpace=wrap;rounded=0;fontSize=10;" parent="kMHocmMXucM_BBJUBmmv-6" vertex="1">
          <mxGeometry x="300.5" y="20" width="100" height="30" as="geometry" />
        </mxCell>
        <mxCell id="SRQ-L8JP4Z42kslTjCw9-21" value="accu_i(8)" style="text;html=1;strokeColor=none;fillColor=none;align=left;verticalAlign=middle;whiteSpace=wrap;rounded=0;fontSize=10;" parent="kMHocmMXucM_BBJUBmmv-6" vertex="1">
          <mxGeometry x="101" y="169.5" width="100" height="30" as="geometry" />
        </mxCell>
        <mxCell id="SRQ-L8JP4Z42kslTjCw9-64" value="&lt;span style=&quot;color: rgb(0, 0, 0); font-family: Helvetica; font-size: 10px; font-style: normal; font-variant-ligatures: normal; font-variant-caps: normal; font-weight: 400; letter-spacing: normal; orphans: 2; text-align: center; text-indent: 0px; text-transform: none; widows: 2; word-spacing: 0px; -webkit-text-stroke-width: 0px; background-color: rgb(251, 251, 251); text-decoration-thickness: initial; text-decoration-style: initial; text-decoration-color: initial; float: none; display: inline !important;&quot;&gt;clk_i(1)&lt;/span&gt;" style="endArrow=classic;html=1;rounded=0;" parent="kMHocmMXucM_BBJUBmmv-6" edge="1">
          <mxGeometry width="50" height="50" relative="1" as="geometry">
            <mxPoint y="36.6700000000003" as="sourcePoint" />
            <mxPoint x="100" y="36.6700000000003" as="targetPoint" />
            <mxPoint as="offset" />
          </mxGeometry>
        </mxCell>
        <mxCell id="SRQ-L8JP4Z42kslTjCw9-65" value="&lt;span style=&quot;color: rgb(0, 0, 0); font-family: Helvetica; font-size: 10px; font-style: normal; font-variant-ligatures: normal; font-variant-caps: normal; font-weight: 400; letter-spacing: normal; orphans: 2; text-align: center; text-indent: 0px; text-transform: none; widows: 2; word-spacing: 0px; -webkit-text-stroke-width: 0px; background-color: rgb(251, 251, 251); text-decoration-thickness: initial; text-decoration-style: initial; text-decoration-color: initial; float: none; display: inline !important;&quot;&gt;reset_i(1)&lt;/span&gt;" style="endArrow=classic;html=1;rounded=0;" parent="kMHocmMXucM_BBJUBmmv-6" edge="1">
          <mxGeometry width="50" height="50" relative="1" as="geometry">
            <mxPoint y="67.05000000000018" as="sourcePoint" />
            <mxPoint x="100" y="66.67000000000007" as="targetPoint" />
            <mxPoint as="offset" />
          </mxGeometry>
        </mxCell>
        <mxCell id="kMHocmMXucM_BBJUBmmv-2" value="PC_source_i(1)" style="text;html=1;strokeColor=none;fillColor=none;align=left;verticalAlign=middle;whiteSpace=wrap;rounded=0;fontSize=10;" parent="kMHocmMXucM_BBJUBmmv-6" vertex="1">
          <mxGeometry x="100" y="140" width="100" height="30" as="geometry" />
        </mxCell>
        <mxCell id="kMHocmMXucM_BBJUBmmv-4" value="addr_i(8)" style="text;html=1;strokeColor=none;fillColor=none;align=left;verticalAlign=middle;whiteSpace=wrap;rounded=0;fontSize=10;" parent="kMHocmMXucM_BBJUBmmv-6" vertex="1">
          <mxGeometry x="101" y="199.5" width="100" height="30" as="geometry" />
        </mxCell>
        <mxCell id="kMHocmMXucM_BBJUBmmv-7" value="data_o_net(8)" style="edgeStyle=orthogonalEdgeStyle;rounded=0;orthogonalLoop=1;jettySize=auto;html=1;exitX=1;exitY=0.5;exitDx=0;exitDy=0;strokeWidth=3;" parent="1" source="JqEs7bicIO-WFsjXywot-15" edge="1">
          <mxGeometry x="0.3188" relative="1" as="geometry">
            <Array as="points">
              <mxPoint x="-1420" y="-888" />
              <mxPoint x="-1420" y="-913" />
              <mxPoint x="-1290" y="-913" />
            </Array>
            <mxPoint x="-1451" y="-878" as="sourcePoint" />
            <mxPoint as="offset" />
            <mxPoint x="-1290" y="-913" as="targetPoint" />
          </mxGeometry>
        </mxCell>
        <mxCell id="kMHocmMXucM_BBJUBmmv-8" value="secdata_o_net(8)" style="edgeStyle=orthogonalEdgeStyle;rounded=0;orthogonalLoop=1;jettySize=auto;html=1;exitX=1;exitY=0.5;exitDx=0;exitDy=0;strokeWidth=3;" parent="1" source="oi5mxDYmSgCu4E1H_VXa-6" edge="1">
          <mxGeometry x="0.056" relative="1" as="geometry">
            <Array as="points">
              <mxPoint x="-1290" y="-644" />
            </Array>
            <mxPoint x="-1459.5" y="-644" as="sourcePoint" />
            <mxPoint as="offset" />
            <mxPoint x="-1290" y="-644" as="targetPoint" />
          </mxGeometry>
        </mxCell>
        <mxCell id="M1Fxh3fQyKv5RR04Pmvz-11" value="" style="rounded=0;whiteSpace=wrap;html=1;" parent="1" vertex="1">
          <mxGeometry x="-1760" y="-1740" width="300" height="210" as="geometry" />
        </mxCell>
        <mxCell id="M1Fxh3fQyKv5RR04Pmvz-12" value="Instruction_Register" style="text;html=1;strokeColor=none;fillColor=none;align=center;verticalAlign=middle;whiteSpace=wrap;rounded=0;" parent="1" vertex="1">
          <mxGeometry x="-1760" y="-1740" width="300" height="20" as="geometry" />
        </mxCell>
        <mxCell id="M1Fxh3fQyKv5RR04Pmvz-43" value="clk_i(1)" style="text;html=1;strokeColor=none;fillColor=none;align=left;verticalAlign=middle;whiteSpace=wrap;rounded=0;fontSize=10;" parent="1" vertex="1">
          <mxGeometry x="-1760" y="-1720" width="100" height="30" as="geometry" />
        </mxCell>
        <mxCell id="M1Fxh3fQyKv5RR04Pmvz-44" value="reset_i(1)" style="text;html=1;strokeColor=none;fillColor=none;align=left;verticalAlign=middle;whiteSpace=wrap;rounded=0;fontSize=10;" parent="1" vertex="1">
          <mxGeometry x="-1760" y="-1690" width="100" height="30" as="geometry" />
        </mxCell>
        <mxCell id="JqEs7bicIO-WFsjXywot-6" value="IR_load_i(1)" style="text;html=1;strokeColor=none;fillColor=none;align=left;verticalAlign=middle;whiteSpace=wrap;rounded=0;fontSize=10;" parent="1" vertex="1">
          <mxGeometry x="-1760" y="-1660" width="100" height="30" as="geometry" />
        </mxCell>
        <mxCell id="JqEs7bicIO-WFsjXywot-7" value="IR_i(14)" style="text;html=1;strokeColor=none;fillColor=none;align=left;verticalAlign=middle;whiteSpace=wrap;rounded=0;fontSize=10;" parent="1" vertex="1">
          <mxGeometry x="-1760" y="-1630" width="100" height="30" as="geometry" />
        </mxCell>
        <mxCell id="JqEs7bicIO-WFsjXywot-8" value="operande_o(8)" style="text;html=1;strokeColor=none;fillColor=none;align=right;verticalAlign=middle;whiteSpace=wrap;rounded=0;fontSize=10;" parent="1" vertex="1">
          <mxGeometry x="-1560" y="-1690" width="100" height="30" as="geometry" />
        </mxCell>
        <mxCell id="JqEs7bicIO-WFsjXywot-11" value="opcode_o(6)" style="text;html=1;strokeColor=none;fillColor=none;align=right;verticalAlign=middle;whiteSpace=wrap;rounded=0;fontSize=10;" parent="1" vertex="1">
          <mxGeometry x="-1560" y="-1720" width="100" height="30" as="geometry" />
        </mxCell>
        <mxCell id="SRQ-L8JP4Z42kslTjCw9-68" value="&lt;span style=&quot;color: rgb(0, 0, 0); font-family: Helvetica; font-size: 10px; font-style: normal; font-variant-ligatures: normal; font-variant-caps: normal; font-weight: 400; letter-spacing: normal; orphans: 2; text-align: center; text-indent: 0px; text-transform: none; widows: 2; word-spacing: 0px; -webkit-text-stroke-width: 0px; background-color: rgb(251, 251, 251); text-decoration-thickness: initial; text-decoration-style: initial; text-decoration-color: initial; float: none; display: inline !important;&quot;&gt;clk_i(1)&lt;/span&gt;" style="endArrow=classic;html=1;rounded=0;" parent="1" edge="1">
          <mxGeometry width="50" height="50" relative="1" as="geometry">
            <mxPoint x="-1860" y="-1705.2299999999998" as="sourcePoint" />
            <mxPoint x="-1760" y="-1705.2299999999998" as="targetPoint" />
            <mxPoint as="offset" />
          </mxGeometry>
        </mxCell>
        <mxCell id="SRQ-L8JP4Z42kslTjCw9-69" value="&lt;span style=&quot;color: rgb(0, 0, 0); font-family: Helvetica; font-size: 10px; font-style: normal; font-variant-ligatures: normal; font-variant-caps: normal; font-weight: 400; letter-spacing: normal; orphans: 2; text-align: center; text-indent: 0px; text-transform: none; widows: 2; word-spacing: 0px; -webkit-text-stroke-width: 0px; background-color: rgb(251, 251, 251); text-decoration-thickness: initial; text-decoration-style: initial; text-decoration-color: initial; float: none; display: inline !important;&quot;&gt;reset_i(1)&lt;/span&gt;" style="endArrow=classic;html=1;rounded=0;" parent="1" edge="1">
          <mxGeometry width="50" height="50" relative="1" as="geometry">
            <mxPoint x="-1860" y="-1674.85" as="sourcePoint" />
            <mxPoint x="-1760" y="-1675.23" as="targetPoint" />
            <mxPoint as="offset" />
          </mxGeometry>
        </mxCell>
        <mxCell id="kMHocmMXucM_BBJUBmmv-11" value="Accu_i(8)" style="text;html=1;strokeColor=none;fillColor=none;align=left;verticalAlign=middle;whiteSpace=wrap;rounded=0;fontSize=10;" parent="1" vertex="1">
          <mxGeometry x="-1760" y="-1600" width="100" height="30" as="geometry" />
        </mxCell>
        <mxCell id="kMHocmMXucM_BBJUBmmv-12" value="SecAccu_i(8)" style="text;html=1;strokeColor=none;fillColor=none;align=left;verticalAlign=middle;whiteSpace=wrap;rounded=0;fontSize=10;" parent="1" vertex="1">
          <mxGeometry x="-1760.5" y="-1570" width="100" height="30" as="geometry" />
        </mxCell>
        <mxCell id="kMHocmMXucM_BBJUBmmv-14" value="data_o_net(8)" style="edgeStyle=orthogonalEdgeStyle;rounded=0;orthogonalLoop=1;jettySize=auto;html=1;entryX=0;entryY=0.5;entryDx=0;entryDy=0;strokeWidth=3;" parent="1" target="kMHocmMXucM_BBJUBmmv-11" edge="1">
          <mxGeometry x="-0.0062" relative="1" as="geometry">
            <Array as="points" />
            <mxPoint x="-1920.5" y="-1585.53" as="sourcePoint" />
            <mxPoint as="offset" />
            <mxPoint x="-1759.5" y="-1585.53" as="targetPoint" />
          </mxGeometry>
        </mxCell>
        <mxCell id="kMHocmMXucM_BBJUBmmv-15" value="secdata_o_net(8)" style="edgeStyle=orthogonalEdgeStyle;rounded=0;orthogonalLoop=1;jettySize=auto;html=1;strokeWidth=3;" parent="1" target="kMHocmMXucM_BBJUBmmv-12" edge="1">
          <mxGeometry x="-0.0062" relative="1" as="geometry">
            <Array as="points" />
            <mxPoint x="-1921.5" y="-1555.53" as="sourcePoint" />
            <mxPoint as="offset" />
            <mxPoint x="-1760.5" y="-1555.53" as="targetPoint" />
          </mxGeometry>
        </mxCell>
      </root>
    </mxGraphModel>
  </diagram>
  <diagram id="Fd4bTf8ClpzPlM0sDHcz" name="Graph etats">
    <mxGraphModel dx="680" dy="487" grid="1" gridSize="10" guides="1" tooltips="1" connect="1" arrows="1" fold="1" page="1" pageScale="1" pageWidth="827" pageHeight="1169" math="0" shadow="0">
      <root>
        <mxCell id="0" />
        <mxCell id="1" parent="0" />
        <mxCell id="ehSL6Her9Ko9BNhhrTRN-1" value="sIR_DECODE" style="ellipse;whiteSpace=wrap;html=1;aspect=fixed;" parent="1" vertex="1">
          <mxGeometry x="494" y="775" width="140" height="140" as="geometry" />
        </mxCell>
        <mxCell id="ehSL6Her9Ko9BNhhrTRN-2" value="sIR_LOAD" style="ellipse;whiteSpace=wrap;html=1;aspect=fixed;" parent="1" vertex="1">
          <mxGeometry x="344" y="555" width="140" height="140" as="geometry" />
        </mxCell>
        <mxCell id="ehSL6Her9Ko9BNhhrTRN-3" value="sRESET" style="ellipse;whiteSpace=wrap;html=1;aspect=fixed;" parent="1" vertex="1">
          <mxGeometry x="344" y="335" width="140" height="140" as="geometry" />
        </mxCell>
        <mxCell id="ehSL6Her9Ko9BNhhrTRN-4" value="sOPCODE_DECODE" style="ellipse;whiteSpace=wrap;html=1;aspect=fixed;" parent="1" vertex="1">
          <mxGeometry x="194" y="775" width="140" height="140" as="geometry" />
        </mxCell>
        <mxCell id="ehSL6Her9Ko9BNhhrTRN-5" value="" style="endArrow=classic;html=1;rounded=0;entryX=0.5;entryY=0;entryDx=0;entryDy=0;" parent="1" target="ehSL6Her9Ko9BNhhrTRN-3" edge="1">
          <mxGeometry width="50" height="50" relative="1" as="geometry">
            <mxPoint x="414" y="255" as="sourcePoint" />
            <mxPoint x="194" y="365" as="targetPoint" />
          </mxGeometry>
        </mxCell>
        <mxCell id="ehSL6Her9Ko9BNhhrTRN-6" value="reset_i=&#39;0&#39;" style="edgeLabel;html=1;align=center;verticalAlign=middle;resizable=0;points=[];" parent="ehSL6Her9Ko9BNhhrTRN-5" vertex="1" connectable="0">
          <mxGeometry x="0.1028" relative="1" as="geometry">
            <mxPoint y="-5" as="offset" />
          </mxGeometry>
        </mxCell>
        <mxCell id="ehSL6Her9Ko9BNhhrTRN-7" value="" style="endArrow=classic;html=1;rounded=0;entryX=1;entryY=0.5;entryDx=0;entryDy=0;exitX=0;exitY=0.5;exitDx=0;exitDy=0;" parent="1" source="ehSL6Her9Ko9BNhhrTRN-1" target="ehSL6Her9Ko9BNhhrTRN-4" edge="1">
          <mxGeometry width="50" height="50" relative="1" as="geometry">
            <mxPoint x="394" y="865" as="sourcePoint" />
            <mxPoint x="444" y="815" as="targetPoint" />
          </mxGeometry>
        </mxCell>
        <mxCell id="ehSL6Her9Ko9BNhhrTRN-8" value="rising_edge(clk_i)" style="edgeLabel;html=1;align=center;verticalAlign=middle;resizable=0;points=[];" parent="ehSL6Her9Ko9BNhhrTRN-7" vertex="1" connectable="0">
          <mxGeometry x="0.1145" relative="1" as="geometry">
            <mxPoint x="9" as="offset" />
          </mxGeometry>
        </mxCell>
        <mxCell id="ehSL6Her9Ko9BNhhrTRN-9" value="" style="endArrow=classic;html=1;rounded=0;exitX=1;exitY=1;exitDx=0;exitDy=0;entryX=0.5;entryY=0;entryDx=0;entryDy=0;" parent="1" source="ehSL6Her9Ko9BNhhrTRN-2" target="ehSL6Her9Ko9BNhhrTRN-1" edge="1">
          <mxGeometry width="50" height="50" relative="1" as="geometry">
            <mxPoint x="474" y="815" as="sourcePoint" />
            <mxPoint x="524" y="765" as="targetPoint" />
          </mxGeometry>
        </mxCell>
        <mxCell id="ehSL6Her9Ko9BNhhrTRN-10" value="rising_edge(clk_i)" style="edgeLabel;html=1;align=center;verticalAlign=middle;resizable=0;points=[];" parent="ehSL6Her9Ko9BNhhrTRN-9" vertex="1" connectable="0">
          <mxGeometry x="-0.1072" relative="1" as="geometry">
            <mxPoint as="offset" />
          </mxGeometry>
        </mxCell>
        <mxCell id="ehSL6Her9Ko9BNhhrTRN-11" value="" style="endArrow=classic;html=1;rounded=0;exitX=0.5;exitY=0;exitDx=0;exitDy=0;entryX=0;entryY=1;entryDx=0;entryDy=0;" parent="1" source="ehSL6Her9Ko9BNhhrTRN-4" target="ehSL6Her9Ko9BNhhrTRN-2" edge="1">
          <mxGeometry width="50" height="50" relative="1" as="geometry">
            <mxPoint x="284" y="755" as="sourcePoint" />
            <mxPoint x="334" y="705" as="targetPoint" />
          </mxGeometry>
        </mxCell>
        <mxCell id="ehSL6Her9Ko9BNhhrTRN-12" value="rising_edge(clk_i)" style="edgeLabel;html=1;align=center;verticalAlign=middle;resizable=0;points=[];" parent="ehSL6Her9Ko9BNhhrTRN-11" vertex="1" connectable="0">
          <mxGeometry x="-0.0739" y="-1" relative="1" as="geometry">
            <mxPoint as="offset" />
          </mxGeometry>
        </mxCell>
        <mxCell id="ehSL6Her9Ko9BNhhrTRN-13" value="" style="endArrow=classic;html=1;rounded=0;exitX=0.5;exitY=1;exitDx=0;exitDy=0;entryX=0.5;entryY=0;entryDx=0;entryDy=0;" parent="1" source="ehSL6Her9Ko9BNhhrTRN-3" target="ehSL6Her9Ko9BNhhrTRN-2" edge="1">
          <mxGeometry width="50" height="50" relative="1" as="geometry">
            <mxPoint x="474" y="565" as="sourcePoint" />
            <mxPoint x="524" y="515" as="targetPoint" />
          </mxGeometry>
        </mxCell>
        <mxCell id="ehSL6Her9Ko9BNhhrTRN-14" value="rising_edge(clk_i)" style="edgeLabel;html=1;align=center;verticalAlign=middle;resizable=0;points=[];" parent="ehSL6Her9Ko9BNhhrTRN-13" vertex="1" connectable="0">
          <mxGeometry x="-0.19" relative="1" as="geometry">
            <mxPoint as="offset" />
          </mxGeometry>
        </mxCell>
      </root>
    </mxGraphModel>
  </diagram>
</mxfile>
